<svg width="607" height="546" viewBox="0 0 607 546" fill="none" xmlns="http://www.w3.org/2000/svg">
<path d="M0.144531 136.738L556.717 8.24265C571.785 4.76401 584 14.48 584 29.944V383.028L0.144531 517.822V136.738Z" fill="#B47850"/>
<path d="M0.144531 90.1028C0.144531 74.6388 12.3593 59.2828 27.4269 55.8042L241.717 6.33131C256.785 2.85267 269 12.5687 269 28.0327V74.6846L0.144531 136.755V90.1028Z" fill="#B47850"/>
<rect width="67.6882" height="38.9487" transform="matrix(0.97437 -0.224951 0.664987 0.746855 0 516.751)" fill="#925F3D"/>
<path d="M26.6655 215.187C27.2566 199.734 39.8447 183.963 54.7818 179.96L579.555 39.3476C594.492 35.3452 606.122 44.6275 605.531 60.0802L594.066 359.779C593.475 375.232 580.887 391.003 565.95 395.005L41.1764 535.618C26.2394 539.621 14.6097 530.338 15.2008 514.886L26.6655 215.187Z" fill="white"/>
</svg>
