<svg width="609" height="475" viewBox="0 0 609 475" fill="none" xmlns="http://www.w3.org/2000/svg">
<path d="M30.7627 181.773C32.3791 166.393 45.7983 150.682 60.7354 146.679L581.104 7.24695C596.041 3.24458 606.839 12.4674 605.223 27.8466L577.387 292.688C575.77 308.067 562.351 323.779 547.414 327.781L27.0459 467.213C12.1089 471.216 1.31033 461.993 2.92676 446.614L30.7627 181.773Z" fill="#F4B860"/>
<path d="M52.2072 403.271L58.6215 401.552V418.154L61.8287 417.294V410.654L65.0359 409.795V416.435L68.2431 415.576V398.974L71.4502 398.115V401.435L74.6574 400.576V420.498L71.4502 421.357V424.677L68.2431 425.537V422.216L65.0359 423.076V419.755L61.8287 420.615V423.935L58.6215 424.794V428.115L55.4144 428.974V425.654L52.2072 426.513V403.271ZM81.185 402.147L94.0137 398.71V402.03L97.2208 401.171V407.811L84.3921 411.249V417.889L90.8065 416.171V412.85L97.2208 411.132V414.452L94.0137 415.311V418.631L81.185 422.069V418.749L77.9778 419.608V406.327L81.185 405.467V402.147ZM84.3921 404.608V407.928L90.8065 406.21V402.889L84.3921 404.608ZM100.466 387.02L106.88 385.301V388.621L110.087 387.762V394.403L119.709 391.825V395.145L122.916 394.286V407.567L119.709 408.426V411.747L110.087 414.325V411.004L106.88 411.864V415.184L100.466 416.903V413.582L103.673 412.723V389.481L100.466 390.34V387.02ZM110.087 397.723V407.684L113.294 406.825V410.145L116.502 409.286V396.004L110.087 397.723ZM142.272 379.138L158.308 374.841V378.162L148.687 380.74V384.06L145.479 384.919V388.24L155.101 385.662V388.982L145.479 391.56V401.521L158.308 398.084V401.404L139.065 406.56V383.318L142.272 382.458V379.138ZM161.553 380.613L167.967 378.894V382.214L171.175 381.355V378.034L177.589 376.316V379.636L180.796 378.777V392.058L184.003 391.199V394.519L177.589 396.238V392.917L174.382 393.777V383.816L171.175 384.675V397.956L164.76 399.675V383.073L161.553 383.933V380.613ZM200.152 366.95L206.567 365.231V371.871L209.774 371.012V374.332L206.567 375.192V378.512L203.359 379.371V382.692L206.567 381.832V385.153L209.774 384.293V390.934L206.567 391.793V395.114L190.531 399.41V396.09L187.324 396.949V390.309L190.531 389.449V386.129L196.945 384.41V381.09L193.738 381.95V378.629L190.531 379.489V376.168L193.738 375.309V371.989L200.152 370.27V366.95ZM196.945 374.45V377.77L203.359 376.051V372.731L196.945 374.45ZM193.738 388.59V395.231L203.359 392.653V386.012L193.738 388.59ZM216.301 359.302L222.716 357.583V360.904L216.301 362.622V359.302ZM213.094 366.802L219.509 365.083V381.685L222.716 380.826V384.146L216.301 385.865V382.544L213.094 383.404V366.802ZM225.923 363.365L232.337 361.646V364.966L235.544 364.107V360.787L241.959 359.068V362.388L245.166 361.529V374.81L248.373 373.951V377.271L241.959 378.99V375.669L238.752 376.529V366.568L235.544 367.427V380.708L229.13 382.427V365.826L225.923 366.685V363.365ZM254.901 355.6L267.729 352.163V355.483L270.937 354.624V361.264L258.108 364.702V371.342L264.522 369.624V366.303L270.937 364.585V367.905L267.729 368.764V372.085L254.901 375.522V372.202L251.694 373.061V359.78L254.901 358.92V355.6ZM258.108 358.061V361.381L264.522 359.663V356.342L258.108 358.061ZM277.389 349.574L290.217 346.137V349.457L293.425 348.598V355.239L280.596 358.676V365.317L287.01 363.598V360.278L293.425 358.559V361.879L290.217 362.739V366.059L277.389 369.496V366.176L274.181 367.035V353.754L277.389 352.895V349.574ZM280.596 352.035V355.356L287.01 353.637V350.317L280.596 352.035ZM296.669 344.408L303.084 342.689V346.01L306.291 345.15V341.83L312.705 340.111V343.432L315.912 342.572V349.213L309.498 350.932V347.611L306.291 348.471V361.752L299.877 363.471V346.869L296.669 347.728V344.408Z" fill="#B47850"/>
</svg>
