<svg width="228" height="254" viewBox="0 0 228 254" fill="none" xmlns="http://www.w3.org/2000/svg">
<path d="M-9.79937 183.699C-9.32107 183.22 -9.32107 182.445 -9.79937 181.967C-10.2777 181.488 -11.0532 181.488 -11.5315 181.967C-12.0098 182.445 -12.0098 183.22 -11.5315 183.699C-11.0532 184.177 -10.2777 184.177 -9.79937 183.699Z" fill="#0E78C8" fill-opacity="0.6"/>
<path d="M4.26602 197.764C4.80354 197.227 4.80354 196.355 4.26602 195.818C3.7285 195.28 2.85702 195.28 2.3195 195.818C1.78198 196.355 1.78197 197.227 2.31949 197.764C2.85701 198.302 3.7285 198.302 4.26602 197.764Z" fill="#0E78C8" fill-opacity="0.6"/>
<path d="M18.3232 211.821C18.9154 211.229 18.9154 210.269 18.3232 209.677C17.731 209.085 16.7709 209.085 16.1787 209.677C15.5865 210.269 15.5865 211.229 16.1787 211.821C16.7709 212.413 17.731 212.413 18.3232 211.821Z" fill="#0E78C8" fill-opacity="0.6"/>
<path d="M32.1824 225.681C32.7199 225.143 32.7199 224.272 32.1824 223.734C31.6449 223.196 30.7734 223.196 30.2359 223.734C29.6983 224.272 29.6983 225.143 30.2359 225.681C30.7734 226.218 31.6449 226.218 32.1824 225.681Z" fill="#0E78C8" fill-opacity="0.6"/>
<path d="M46.0333 239.531C46.5116 239.053 46.5116 238.278 46.0333 237.799C45.555 237.321 44.7796 237.321 44.3013 237.799C43.823 238.278 43.823 239.053 44.3013 239.531C44.7796 240.01 45.555 240.01 46.0333 239.531Z" fill="#0E78C8" fill-opacity="0.6"/>
<path d="M-23.6503 141.931C-23.1128 141.394 -23.1128 140.522 -23.6503 139.985C-24.1878 139.447 -25.0593 139.447 -25.5969 139.985C-26.1344 140.522 -26.1344 141.394 -25.5969 141.931C-25.0593 142.469 -24.1878 142.469 -23.6503 141.931Z" fill="#0E78C8" fill-opacity="0.6"/>
<path d="M-9.48595 156.096C-8.83455 155.444 -8.83455 154.388 -9.48595 153.737C-10.1374 153.085 -11.1935 153.085 -11.8449 153.737C-12.4963 154.388 -12.4963 155.444 -11.8449 156.096C-11.1935 156.747 -10.1374 156.747 -9.48595 156.096Z" fill="#0E78C8" fill-opacity="0.6"/>
<path d="M4.68668 170.268C5.45652 169.499 5.45651 168.25 4.68668 167.481C3.91684 166.711 2.66868 166.711 1.89884 167.481C1.12901 168.25 1.12901 169.499 1.89885 170.268C2.66869 171.038 3.91684 171.038 4.68668 170.268Z" fill="#0E78C8" fill-opacity="0.6"/>
<path d="M18.8593 184.441C19.7476 183.553 19.7476 182.113 18.8593 181.224C17.971 180.336 16.5308 180.336 15.6426 181.224C14.7543 182.113 14.7543 183.553 15.6426 184.441C16.5308 185.329 17.971 185.329 18.8593 184.441Z" fill="#0E78C8" fill-opacity="0.6"/>
<path d="M33.0319 198.614C34.0386 197.607 34.0386 195.975 33.0319 194.968C32.0252 193.961 30.393 193.961 29.3863 194.968C28.3796 195.975 28.3796 197.607 29.3863 198.614C30.393 199.62 32.0252 199.62 33.0319 198.614Z" fill="#0E78C8" fill-opacity="0.6"/>
<path d="M46.7757 212.357C47.6639 211.469 47.6639 210.029 46.7757 209.141C45.8874 208.252 44.4472 208.252 43.5589 209.141C42.6707 210.029 42.6707 211.469 43.5589 212.357C44.4472 213.246 45.8874 213.246 46.7757 212.357Z" fill="#0E78C8" fill-opacity="0.6"/>
<path d="M60.5194 226.101C61.2892 225.331 61.2892 224.083 60.5194 223.313C59.7495 222.543 58.5014 222.543 57.7316 223.313C56.9617 224.083 56.9617 225.331 57.7316 226.101C58.5014 226.871 59.7495 226.871 60.5194 226.101Z" fill="#0E78C8" fill-opacity="0.6"/>
<path d="M74.2631 239.845C74.9145 239.193 74.9145 238.137 74.2631 237.486C73.6117 236.835 72.5556 236.835 71.9042 237.486C71.2528 238.137 71.2528 239.193 71.9042 239.845C72.5556 240.496 73.6117 240.496 74.2631 239.845Z" fill="#0E78C8" fill-opacity="0.6"/>
<path d="M88.0151 253.597C88.5526 253.059 88.5526 252.188 88.0151 251.65C87.4776 251.113 86.6061 251.113 86.0686 251.65C85.531 252.188 85.531 253.059 86.0686 253.597C86.6061 254.134 87.4776 254.134 88.0151 253.597Z" fill="#0E78C8" fill-opacity="0.6"/>
<path d="M-23.6503 114.015C-23.1128 113.478 -23.1128 112.606 -23.6503 112.069C-24.1878 111.531 -25.0593 111.531 -25.5969 112.069C-26.1344 112.606 -26.1344 113.478 -25.5969 114.015C-25.0593 114.553 -24.1878 114.553 -23.6503 114.015Z" fill="#0E78C8" fill-opacity="0.6"/>
<path d="M-9.37873 128.287C-8.66811 127.576 -8.66811 126.424 -9.37873 125.713C-10.0893 125.003 -11.2415 125.003 -11.9521 125.713C-12.6627 126.424 -12.6627 127.576 -11.9521 128.287C-11.2415 128.997 -10.0893 128.997 -9.37873 128.287Z" fill="#0E78C8" fill-opacity="0.6"/>
<path d="M4.90113 142.567C5.7894 141.678 5.7894 140.238 4.90112 139.35C4.01285 138.462 2.57267 138.462 1.6844 139.35C0.796125 140.238 0.796125 141.678 1.6844 142.567C2.57267 143.455 4.01285 143.455 4.90113 142.567Z" fill="#0E78C8" fill-opacity="0.6"/>
<path d="M19.181 156.846C20.2469 155.78 20.2469 154.052 19.181 152.986C18.115 151.92 16.3868 151.92 15.3209 152.986C14.255 154.052 14.255 155.78 15.3209 156.846C16.3868 157.912 18.115 157.912 19.181 156.846Z" fill="#0E78C8" fill-opacity="0.6"/>
<path d="M33.4608 171.126C34.7044 169.883 34.7044 167.866 33.4608 166.623C32.2172 165.379 30.201 165.379 28.9574 166.623C27.7138 167.866 27.7138 169.883 28.9574 171.126C30.201 172.37 32.2172 172.37 33.4608 171.126Z" fill="#0E78C8" fill-opacity="0.6"/>
<path d="M47.7324 185.398C49.1491 183.981 49.1491 181.684 47.7324 180.268C46.3157 178.851 44.0188 178.851 42.6022 180.268C41.1855 181.684 41.1855 183.981 42.6022 185.398C44.0188 186.815 46.3157 186.815 47.7324 185.398Z" fill="#0E78C8" fill-opacity="0.6"/>
<path d="M61.3772 199.043C62.6208 197.799 62.6208 195.783 61.3772 194.539C60.1336 193.296 58.1173 193.296 56.8738 194.539C55.6302 195.783 55.6302 197.799 56.8738 199.043C58.1173 200.286 60.1336 200.286 61.3772 199.043Z" fill="#0E78C8" fill-opacity="0.6"/>
<path d="M75.0137 212.679C76.0796 211.613 76.0796 209.885 75.0137 208.819C73.9478 207.753 72.2195 207.753 71.1536 208.819C70.0877 209.885 70.0877 211.613 71.1536 212.679C72.2195 213.745 73.9478 213.745 75.0137 212.679Z" fill="#0E78C8" fill-opacity="0.6"/>
<path d="M88.6502 226.316C89.5385 225.427 89.5385 223.987 88.6502 223.099C87.7619 222.211 86.3217 222.211 85.4335 223.099C84.5452 223.987 84.5452 225.427 85.4335 226.316C86.3217 227.204 87.7619 227.204 88.6502 226.316Z" fill="#0E78C8" fill-opacity="0.6"/>
<path d="M102.287 239.952C102.997 239.241 102.997 238.089 102.287 237.379C101.576 236.668 100.424 236.668 99.7133 237.379C99.0027 238.089 99.0027 239.242 99.7133 239.952C100.424 240.663 101.576 240.663 102.287 239.952Z" fill="#0E78C8" fill-opacity="0.6"/>
<path d="M115.931 253.597C116.469 253.059 116.469 252.188 115.931 251.65C115.394 251.113 114.522 251.113 113.985 251.65C113.447 252.188 113.447 253.059 113.985 253.597C114.522 254.134 115.394 254.134 115.931 253.597Z" fill="#0E78C8" fill-opacity="0.6"/>
<path d="M-9.48595 100.263C-8.83455 99.6117 -8.83455 98.5556 -9.48595 97.9042C-10.1374 97.2528 -11.1935 97.2528 -11.8449 97.9042C-12.4963 98.5556 -12.4963 99.6117 -11.8449 100.263C-11.1935 100.915 -10.1374 100.915 -9.48595 100.263Z" fill="#0E78C8" fill-opacity="0.6"/>
<path d="M4.90112 114.65C5.7894 113.762 5.7894 112.322 4.90113 111.433C4.01285 110.545 2.57267 110.545 1.6844 111.433C0.796125 112.322 0.796125 113.762 1.6844 114.65C2.57267 115.538 4.01285 115.538 4.90112 114.65Z" fill="#0E78C8" fill-opacity="0.6"/>
<path d="M19.2882 129.037C20.4133 127.912 20.4133 126.088 19.2882 124.963C18.1631 123.838 16.3388 123.838 15.2137 124.963C14.0885 126.088 14.0885 127.912 15.2137 129.037C16.3388 130.162 18.1631 130.162 19.2882 129.037Z" fill="#0E78C8" fill-opacity="0.6"/>
<path d="M33.667 143.416C35.0245 142.059 35.0245 139.858 33.667 138.5C32.3096 137.143 30.1087 137.143 28.7512 138.5C27.3937 139.858 27.3937 142.059 28.7512 143.416C30.1087 144.774 32.3096 144.774 33.667 143.416Z" fill="#0E78C8" fill-opacity="0.6"/>
<path d="M48.0541 157.803C49.6484 156.209 49.6484 153.624 48.0541 152.03C46.4598 150.435 43.8748 150.435 42.2805 152.03C40.6861 153.624 40.6861 156.209 42.2805 157.803C43.8748 159.397 46.4598 159.397 48.0541 157.803Z" fill="#0E78C8" fill-opacity="0.6"/>
<path d="M62.4412 172.19C64.2724 170.359 64.2724 167.39 62.4412 165.559C60.61 163.728 57.641 163.728 55.8098 165.559C53.9786 167.39 53.9786 170.359 55.8098 172.19C57.641 174.021 60.61 174.021 62.4412 172.19Z" fill="#0E78C8" fill-opacity="0.6"/>
<path d="M75.9705 185.72C77.5648 184.125 77.5648 181.54 75.9705 179.946C74.3761 178.352 71.7912 178.352 70.1968 179.946C68.6025 181.54 68.6025 184.125 70.1968 185.72C71.7912 187.314 74.3761 187.314 75.9705 185.72Z" fill="#0E78C8" fill-opacity="0.6"/>
<path d="M89.4997 199.249C90.8572 197.891 90.8572 195.69 89.4997 194.333C88.1423 192.976 85.9414 192.976 84.5839 194.333C83.2264 195.69 83.2265 197.891 84.5839 199.249C85.9414 200.606 88.1423 200.606 89.4997 199.249Z" fill="#0E78C8" fill-opacity="0.6"/>
<path d="M103.037 212.786C104.162 211.661 104.162 209.837 103.037 208.712C101.912 207.587 100.088 207.587 98.9627 208.712C97.8376 209.837 97.8376 211.661 98.9627 212.786C100.088 213.911 101.912 213.911 103.037 212.786Z" fill="#0E78C8" fill-opacity="0.6"/>
<path d="M116.567 226.316C117.455 225.427 117.455 223.987 116.567 223.099C115.678 222.211 114.238 222.211 113.35 223.099C112.462 223.987 112.462 225.427 113.35 226.316C114.238 227.204 115.678 227.204 116.567 226.316Z" fill="#0E78C8" fill-opacity="0.6"/>
<path d="M130.096 239.845C130.747 239.193 130.747 238.137 130.096 237.486C129.444 236.835 128.388 236.835 127.737 237.486C127.085 238.137 127.085 239.193 127.737 239.845C128.388 240.496 129.444 240.496 130.096 239.845Z" fill="#0E78C8" fill-opacity="0.6"/>
<path d="M-9.79937 72.0333C-9.32107 71.555 -9.32107 70.7795 -9.79937 70.3012C-10.2777 69.8229 -11.0532 69.8229 -11.5315 70.3012C-12.0098 70.7795 -12.0098 71.555 -11.5315 72.0333C-11.0532 72.5116 -10.2777 72.5116 -9.79937 72.0333Z" fill="#0E78C8" fill-opacity="0.6"/>
<path d="M4.68668 86.5194C5.45651 85.7495 5.45652 84.5014 4.68668 83.7316C3.91684 82.9617 2.66869 82.9617 1.89885 83.7316C1.12901 84.5014 1.12901 85.7495 1.89884 86.5194C2.66868 87.2892 3.91684 87.2892 4.68668 86.5194Z" fill="#0E78C8" fill-opacity="0.6"/>
<path d="M19.181 101.014C20.2469 99.9478 20.2469 98.2195 19.181 97.1536C18.115 96.0877 16.3868 96.0877 15.3209 97.1536C14.255 98.2195 14.255 99.9478 15.3209 101.014C16.3868 102.08 18.115 102.08 19.181 101.014Z" fill="#0E78C8" fill-opacity="0.6"/>
<path d="M33.667 115.5C35.0245 114.142 35.0245 111.941 33.667 110.584C32.3096 109.226 30.1087 109.226 28.7512 110.584C27.3937 111.941 27.3937 114.142 28.7512 115.5C30.1087 116.857 32.3096 116.857 33.667 115.5Z" fill="#0E78C8" fill-opacity="0.6"/>
<path d="M48.1613 129.994C49.8149 128.34 49.8149 125.66 48.1613 124.006C46.5078 122.352 43.8268 122.352 42.1733 124.006C40.5197 125.66 40.5197 128.34 42.1733 129.994C43.8268 131.648 46.5078 131.648 48.1613 129.994Z" fill="#0E78C8" fill-opacity="0.6"/>
<path d="M62.6556 144.488C64.6053 142.539 64.6053 139.378 62.6556 137.428C60.706 135.478 57.545 135.478 55.5953 137.428C53.6457 139.378 53.6457 142.539 55.5953 144.488C57.545 146.438 60.706 146.438 62.6556 144.488Z" fill="#0E78C8" fill-opacity="0.6"/>
<path d="M77.1417 158.974C79.3829 156.733 79.3829 153.1 77.1417 150.858C74.9005 148.617 71.2668 148.617 69.0256 150.858C66.7844 153.1 66.7844 156.733 69.0256 158.974C71.2668 161.216 74.9005 161.216 77.1417 158.974Z" fill="#0E78C8" fill-opacity="0.6"/>
<path d="M90.572 172.405C92.5216 170.455 92.5216 167.294 90.572 165.344C88.6223 163.395 85.4613 163.395 83.5117 165.344C81.562 167.294 81.562 170.455 83.5117 172.405C85.4613 174.354 88.6223 174.354 90.572 172.405Z" fill="#0E78C8" fill-opacity="0.6"/>
<path d="M103.994 185.827C105.648 184.173 105.648 181.492 103.994 179.839C102.34 178.185 99.6595 178.185 98.006 179.839C96.3524 181.492 96.3524 184.173 98.006 185.827C99.6595 187.48 102.34 187.48 103.994 185.827Z" fill="#0E78C8" fill-opacity="0.6"/>
<path d="M117.416 199.249C118.774 197.891 118.774 195.69 117.416 194.333C116.059 192.976 113.858 192.976 112.5 194.333C111.143 195.69 111.143 197.891 112.5 199.249C113.858 200.606 116.059 200.606 117.416 199.249Z" fill="#0E78C8" fill-opacity="0.6"/>
<path d="M130.846 212.679C131.912 211.613 131.912 209.885 130.846 208.819C129.78 207.753 128.052 207.753 126.986 208.819C125.92 209.885 125.92 211.613 126.986 212.679C128.052 213.745 129.78 213.745 130.846 212.679Z" fill="#0E78C8" fill-opacity="0.6"/>
<path d="M144.268 226.101C145.038 225.331 145.038 224.083 144.268 223.313C143.499 222.543 142.25 222.543 141.481 223.313C140.711 224.083 140.711 225.331 141.481 226.101C142.25 226.871 143.499 226.871 144.268 226.101Z" fill="#0E78C8" fill-opacity="0.6"/>
<path d="M157.699 239.531C158.177 239.053 158.177 238.278 157.699 237.799C157.22 237.321 156.445 237.321 155.967 237.799C155.488 238.278 155.488 239.053 155.967 239.531C156.445 240.01 157.22 240.01 157.699 239.531Z" fill="#0E78C8" fill-opacity="0.6"/>
<path d="M4.26602 58.1824C4.80354 57.6449 4.80354 56.7734 4.26602 56.2359C3.7285 55.6983 2.85701 55.6983 2.31949 56.2359C1.78197 56.7734 1.78198 57.6449 2.3195 58.1824C2.85702 58.7199 3.7285 58.7199 4.26602 58.1824Z" fill="#0E78C8" fill-opacity="0.6"/>
<path d="M18.8593 72.7757C19.7476 71.8874 19.7476 70.4472 18.8593 69.5589C17.971 68.6707 16.5308 68.6707 15.6426 69.5589C14.7543 70.4472 14.7543 71.8874 15.6426 72.7757C16.5308 73.6639 17.971 73.6639 18.8593 72.7757Z" fill="#0E78C8" fill-opacity="0.6"/>
<path d="M33.4608 87.3772C34.7044 86.1336 34.7044 84.1173 33.4608 82.8738C32.2172 81.6302 30.201 81.6302 28.9574 82.8738C27.7138 84.1173 27.7138 86.1336 28.9574 87.3772C30.201 88.6208 32.2172 88.6208 33.4608 87.3772Z" fill="#0E78C8" fill-opacity="0.6"/>
<path d="M48.0541 101.97C49.6484 100.376 49.6484 97.7912 48.0541 96.1968C46.4598 94.6025 43.8748 94.6025 42.2805 96.1968C40.6861 97.7912 40.6861 100.376 42.2805 101.97C43.8748 103.565 46.4598 103.565 48.0541 101.97Z" fill="#0E78C8" fill-opacity="0.6"/>
<path d="M62.6556 116.572C64.6053 114.622 64.6053 111.461 62.6556 109.512C60.706 107.562 57.545 107.562 55.5953 109.512C53.6457 111.461 53.6457 114.622 55.5953 116.572C57.545 118.522 60.706 118.522 62.6556 116.572Z" fill="#0E78C8" fill-opacity="0.6"/>
<path d="M77.2489 131.165C79.5493 128.865 79.5493 125.135 77.2489 122.835C74.9485 120.534 71.2188 120.534 68.9184 122.835C66.618 125.135 66.618 128.865 68.9184 131.165C71.2188 133.466 74.9485 133.466 77.2489 131.165Z" fill="#0E78C8" fill-opacity="0.6"/>
<path d="M91.8504 145.767C94.5061 143.111 94.5061 138.805 91.8504 136.15C89.1947 133.494 84.8889 133.494 82.2332 136.15C79.5775 138.805 79.5775 143.111 82.2332 145.767C84.8889 148.422 89.1947 148.422 91.8504 145.767Z" fill="#0E78C8" fill-opacity="0.6"/>
<path d="M105.165 159.082C107.466 156.781 107.466 153.052 105.165 150.751C102.865 148.451 99.1352 148.451 96.8348 150.751C94.5343 153.052 94.5344 156.781 96.8348 159.082C99.1352 161.382 102.865 161.382 105.165 159.082Z" fill="#0E78C8" fill-opacity="0.6"/>
<path d="M118.488 172.405C120.438 170.455 120.438 167.294 118.488 165.344C116.539 163.395 113.378 163.395 111.428 165.344C109.478 167.294 109.478 170.455 111.428 172.405C113.378 174.354 116.539 174.354 118.488 172.405Z" fill="#0E78C8" fill-opacity="0.6"/>
<path d="M131.803 185.72C133.397 184.125 133.397 181.54 131.803 179.946C130.209 178.352 127.624 178.352 126.03 179.946C124.435 181.54 124.435 184.125 126.03 185.72C127.624 187.314 130.209 187.314 131.803 185.72Z" fill="#0E78C8" fill-opacity="0.6"/>
<path d="M145.126 199.043C146.37 197.799 146.37 195.783 145.126 194.539C143.883 193.296 141.866 193.296 140.623 194.539C139.379 195.783 139.379 197.799 140.623 199.043C141.866 200.286 143.883 200.286 145.126 199.043Z" fill="#0E78C8" fill-opacity="0.6"/>
<path d="M158.441 212.357C159.329 211.469 159.329 210.029 158.441 209.141C157.553 208.252 156.113 208.252 155.224 209.141C154.336 210.029 154.336 211.469 155.224 212.357C156.113 213.246 157.553 213.246 158.441 212.357Z" fill="#0E78C8" fill-opacity="0.6"/>
<path d="M171.764 225.681C172.302 225.143 172.302 224.271 171.764 223.734C171.227 223.196 170.355 223.196 169.818 223.734C169.28 224.271 169.28 225.143 169.818 225.681C170.355 226.218 171.227 226.218 171.764 225.681Z" fill="#0E78C8" fill-opacity="0.6"/>
<path d="M18.3232 44.3232C18.9154 43.731 18.9154 42.7709 18.3232 42.1787C17.731 41.5865 16.7709 41.5865 16.1787 42.1787C15.5865 42.7709 15.5865 43.731 16.1787 44.3232C16.7709 44.9154 17.731 44.9154 18.3232 44.3232Z" fill="#0E78C8" fill-opacity="0.6"/>
<path d="M33.0319 59.0319C34.0386 58.0252 34.0386 56.393 33.0319 55.3863C32.0252 54.3796 30.393 54.3796 29.3863 55.3863C28.3796 56.393 28.3796 58.0252 29.3863 59.0319C30.393 60.0386 32.0252 60.0386 33.0319 59.0319Z" fill="#0E78C8" fill-opacity="0.6"/>
<path d="M47.7324 73.7324C49.1491 72.3157 49.1491 70.0188 47.7324 68.6022C46.3157 67.1855 44.0188 67.1855 42.6022 68.6022C41.1855 70.0188 41.1855 72.3157 42.6022 73.7324C44.0188 75.1491 46.3157 75.1491 47.7324 73.7324Z" fill="#0E78C8" fill-opacity="0.6"/>
<path d="M62.4412 88.4412C64.2724 86.61 64.2724 83.641 62.4412 81.8098C60.61 79.9786 57.641 79.9786 55.8098 81.8098C53.9786 83.641 53.9786 86.61 55.8098 88.4412C57.641 90.2724 60.61 90.2724 62.4412 88.4412Z" fill="#0E78C8" fill-opacity="0.6"/>
<path d="M77.1417 103.142C79.3829 100.9 79.3829 97.2668 77.1417 95.0256C74.9005 92.7844 71.2668 92.7844 69.0256 95.0256C66.7844 97.2668 66.7844 100.9 69.0256 103.142C71.2668 105.383 74.9005 105.383 77.1417 103.142Z" fill="#0E78C8" fill-opacity="0.6"/>
<path d="M91.8504 117.85C94.5061 115.195 94.5061 110.889 91.8504 108.233C89.1947 105.578 84.8889 105.578 82.2332 108.233C79.5775 110.889 79.5775 115.195 82.2332 117.85C84.8889 120.506 89.1947 120.506 91.8504 117.85Z" fill="#0E78C8" fill-opacity="0.6"/>
<path d="M106.551 132.551C109.617 129.485 109.617 124.515 106.551 121.449C103.485 118.383 98.5148 118.383 95.4491 121.449C92.3834 124.515 92.3834 129.485 95.4491 132.551C98.5148 135.617 103.485 135.617 106.551 132.551Z" fill="#0E78C8" fill-opacity="0.6"/>
<path d="M119.767 145.767C122.422 143.111 122.422 138.805 119.767 136.15C117.111 133.494 112.805 133.494 110.15 136.15C107.494 138.805 107.494 143.111 110.15 145.767C112.805 148.422 117.111 148.422 119.767 145.767Z" fill="#0E78C8" fill-opacity="0.6"/>
<path d="M132.974 158.974C135.216 156.733 135.216 153.1 132.974 150.858C130.733 148.617 127.1 148.617 124.858 150.858C122.617 153.1 122.617 156.733 124.858 158.974C127.1 161.216 130.733 161.216 132.974 158.974Z" fill="#0E78C8" fill-opacity="0.6"/>
<path d="M146.19 172.19C148.021 170.359 148.021 167.39 146.19 165.559C144.359 163.728 141.39 163.728 139.559 165.559C137.728 167.39 137.728 170.359 139.559 172.19C141.39 174.021 144.359 174.021 146.19 172.19Z" fill="#0E78C8" fill-opacity="0.6"/>
<path d="M159.398 185.398C160.815 183.981 160.815 181.684 159.398 180.268C157.981 178.851 155.684 178.851 154.268 180.268C152.851 181.684 152.851 183.981 154.268 185.398C155.684 186.815 157.981 186.815 159.398 185.398Z" fill="#0E78C8" fill-opacity="0.6"/>
<path d="M172.614 198.614C173.62 197.607 173.62 195.975 172.614 194.968C171.607 193.961 169.975 193.961 168.968 194.968C167.961 195.975 167.961 197.607 168.968 198.614C169.975 199.62 171.607 199.62 172.614 198.614Z" fill="#0E78C8" fill-opacity="0.6"/>
<path d="M185.821 211.821C186.413 211.229 186.413 210.269 185.821 209.677C185.229 209.085 184.269 209.085 183.677 209.677C183.085 210.269 183.085 211.229 183.677 211.821C184.269 212.413 185.229 212.413 185.821 211.821Z" fill="#0E78C8" fill-opacity="0.6"/>
<path d="M32.1824 30.266C32.7199 29.7285 32.7199 28.857 32.1824 28.3195C31.6449 27.782 30.7734 27.782 30.2359 28.3195C29.6983 28.857 29.6983 29.7285 30.2359 30.266C30.7734 30.8035 31.6449 30.8035 32.1824 30.266Z" fill="#0E78C8" fill-opacity="0.6"/>
<path d="M46.7757 44.8593C47.6639 43.971 47.6639 42.5308 46.7757 41.6426C45.8874 40.7543 44.4472 40.7543 43.5589 41.6426C42.6707 42.5308 42.6707 43.971 43.5589 44.8593C44.4472 45.7476 45.8874 45.7476 46.7757 44.8593Z" fill="#0E78C8" fill-opacity="0.6"/>
<path d="M61.3772 59.4608C62.6208 58.2172 62.6208 56.201 61.3772 54.9574C60.1336 53.7138 58.1173 53.7138 56.8738 54.9574C55.6302 56.201 55.6302 58.2172 56.8738 59.4608C58.1173 60.7044 60.1336 60.7044 61.3772 59.4608Z" fill="#0E78C8" fill-opacity="0.6"/>
<path d="M75.9705 74.0541C77.5648 72.4598 77.5648 69.8748 75.9705 68.2805C74.3761 66.6861 71.7912 66.6861 70.1968 68.2805C68.6025 69.8748 68.6025 72.4598 70.1968 74.0541C71.7912 75.6484 74.3761 75.6484 75.9705 74.0541Z" fill="#0E78C8" fill-opacity="0.6"/>
<path d="M90.572 88.6556C92.5216 86.706 92.5216 83.545 90.572 81.5953C88.6223 79.6457 85.4613 79.6457 83.5117 81.5953C81.562 83.545 81.562 86.706 83.5117 88.6556C85.4613 90.6053 88.6223 90.6053 90.572 88.6556Z" fill="#0E78C8" fill-opacity="0.6"/>
<path d="M105.165 103.249C107.466 100.948 107.466 97.2188 105.165 94.9184C102.865 92.618 99.1352 92.618 96.8348 94.9184C94.5344 97.2188 94.5343 100.948 96.8348 103.249C99.1352 105.549 102.865 105.549 105.165 103.249Z" fill="#0E78C8" fill-opacity="0.6"/>
<path d="M119.767 117.85C122.422 115.195 122.422 110.889 119.767 108.233C117.111 105.578 112.805 105.578 110.15 108.233C107.494 110.889 107.494 115.195 110.15 117.85C112.805 120.506 117.111 120.506 119.767 117.85Z" fill="#0E78C8" fill-opacity="0.6"/>
<path d="M133.082 131.165C135.382 128.865 135.382 125.135 133.082 122.835C130.781 120.534 127.052 120.534 124.751 122.835C122.451 125.135 122.451 128.865 124.751 131.165C127.052 133.466 130.781 133.466 133.082 131.165Z" fill="#0E78C8" fill-opacity="0.6"/>
<path d="M146.405 144.488C148.354 142.539 148.354 139.378 146.405 137.428C144.455 135.478 141.294 135.478 139.344 137.428C137.395 139.378 137.395 142.539 139.344 144.488C141.294 146.438 144.455 146.438 146.405 144.488Z" fill="#0E78C8" fill-opacity="0.6"/>
<path d="M159.72 157.803C161.314 156.209 161.314 153.624 159.72 152.03C158.125 150.435 155.54 150.435 153.946 152.03C152.352 153.624 152.352 156.209 153.946 157.803C155.54 159.397 158.125 159.397 159.72 157.803Z" fill="#0E78C8" fill-opacity="0.6"/>
<path d="M173.043 171.126C174.286 169.883 174.286 167.866 173.043 166.623C171.799 165.379 169.783 165.379 168.539 166.623C167.296 167.866 167.296 169.883 168.539 171.126C169.783 172.37 171.799 172.37 173.043 171.126Z" fill="#0E78C8" fill-opacity="0.6"/>
<path d="M186.357 184.441C187.246 183.553 187.246 182.113 186.357 181.224C185.469 180.336 184.029 180.336 183.141 181.224C182.252 182.113 182.252 183.553 183.141 184.441C184.029 185.329 185.469 185.329 186.357 184.441Z" fill="#0E78C8" fill-opacity="0.6"/>
<path d="M199.681 197.764C200.218 197.227 200.218 196.355 199.681 195.818C199.143 195.28 198.271 195.28 197.734 195.818C197.196 196.355 197.196 197.227 197.734 197.764C198.272 198.302 199.143 198.302 199.681 197.764Z" fill="#0E78C8" fill-opacity="0.6"/>
<path d="M46.0333 16.2006C46.5116 15.7223 46.5116 14.9469 46.0333 14.4685C45.555 13.9902 44.7796 13.9902 44.3013 14.4685C43.823 14.9468 43.823 15.7223 44.3013 16.2006C44.7796 16.6789 45.555 16.6789 46.0333 16.2006Z" fill="#0E78C8" fill-opacity="0.6"/>
<path d="M60.5194 30.6867C61.2892 29.9168 61.2892 28.6687 60.5194 27.8989C59.7495 27.129 58.5014 27.129 57.7316 27.8988C56.9617 28.6687 56.9617 29.9168 57.7316 30.6867C58.5014 31.4565 59.7495 31.4565 60.5194 30.6867Z" fill="#0E78C8" fill-opacity="0.6"/>
<path d="M75.0137 45.181C76.0796 44.115 76.0796 42.3868 75.0137 41.3209C73.9478 40.255 72.2195 40.255 71.1536 41.3209C70.0877 42.3868 70.0877 44.1151 71.1536 45.181C72.2195 46.2469 73.9478 46.2469 75.0137 45.181Z" fill="#0E78C8" fill-opacity="0.6"/>
<path d="M89.4997 59.667C90.8572 58.3096 90.8572 56.1087 89.4997 54.7512C88.1423 53.3937 85.9414 53.3937 84.5839 54.7512C83.2265 56.1087 83.2264 58.3096 84.5839 59.667C85.9414 61.0245 88.1423 61.0245 89.4997 59.667Z" fill="#0E78C8" fill-opacity="0.6"/>
<path d="M103.994 74.1613C105.648 72.5078 105.648 69.8268 103.994 68.1733C102.34 66.5197 99.6595 66.5197 98.006 68.1733C96.3524 69.8268 96.3524 72.5078 98.006 74.1613C99.6595 75.8149 102.34 75.8149 103.994 74.1613Z" fill="#0E78C8" fill-opacity="0.6"/>
<path d="M118.488 88.6556C120.438 86.706 120.438 83.545 118.488 81.5953C116.539 79.6457 113.378 79.6457 111.428 81.5953C109.478 83.545 109.478 86.706 111.428 88.6556C113.378 90.6053 116.539 90.6053 118.488 88.6556Z" fill="#0E78C8" fill-opacity="0.6"/>
<path d="M132.974 103.142C135.216 100.9 135.216 97.2668 132.974 95.0256C130.733 92.7844 127.1 92.7844 124.858 95.0256C122.617 97.2668 122.617 100.9 124.858 103.142C127.1 105.383 130.733 105.383 132.974 103.142Z" fill="#0E78C8" fill-opacity="0.6"/>
<path d="M146.405 116.572C148.354 114.622 148.354 111.461 146.405 109.512C144.455 107.562 141.294 107.562 139.344 109.512C137.395 111.461 137.395 114.622 139.344 116.572C141.294 118.522 144.455 118.522 146.405 116.572Z" fill="#0E78C8" fill-opacity="0.6"/>
<path d="M159.827 129.994C161.48 128.34 161.48 125.66 159.827 124.006C158.173 122.352 155.492 122.352 153.839 124.006C152.185 125.66 152.185 128.34 153.839 129.994C155.492 131.648 158.173 131.648 159.827 129.994Z" fill="#0E78C8" fill-opacity="0.6"/>
<path d="M173.249 143.416C174.606 142.059 174.606 139.858 173.249 138.5C171.891 137.143 169.69 137.143 168.333 138.5C166.976 139.858 166.976 142.059 168.333 143.416C169.69 144.774 171.891 144.774 173.249 143.416Z" fill="#0E78C8" fill-opacity="0.6"/>
<path d="M186.679 156.846C187.745 155.78 187.745 154.052 186.679 152.986C185.613 151.92 183.885 151.92 182.819 152.986C181.753 154.052 181.753 155.78 182.819 156.846C183.885 157.912 185.613 157.912 186.679 156.846Z" fill="#0E78C8" fill-opacity="0.6"/>
<path d="M200.101 170.268C200.871 169.499 200.871 168.25 200.101 167.481C199.331 166.711 198.083 166.711 197.313 167.481C196.543 168.25 196.543 169.499 197.313 170.268C198.083 171.038 199.331 171.038 200.101 170.268Z" fill="#0E78C8" fill-opacity="0.6"/>
<path d="M213.531 183.699C214.01 183.22 214.01 182.445 213.531 181.967C213.053 181.488 212.278 181.488 211.799 181.967C211.321 182.445 211.321 183.22 211.799 183.699C212.278 184.177 213.053 184.177 213.531 183.699Z" fill="#0E78C8" fill-opacity="0.6"/>
<path d="M74.2631 16.5141C74.9145 15.8627 74.9145 14.8065 74.2631 14.1551C73.6117 13.5037 72.5556 13.5037 71.9042 14.1551C71.2528 14.8065 71.2528 15.8626 71.9042 16.514C72.5556 17.1655 73.6117 17.1655 74.2631 16.5141Z" fill="#0E78C8" fill-opacity="0.6"/>
<path d="M88.6502 30.9011C89.5385 30.0129 89.5385 28.5727 88.6502 27.6844C87.7619 26.7961 86.3217 26.7961 85.4335 27.6844C84.5452 28.5727 84.5452 30.0129 85.4335 30.9011C86.3217 31.7894 87.7619 31.7894 88.6502 30.9011Z" fill="#0E78C8" fill-opacity="0.6"/>
<path d="M103.037 45.2882C104.162 44.1631 104.162 42.3388 103.037 41.2137C101.912 40.0885 100.088 40.0885 98.9627 41.2137C97.8376 42.3388 97.8376 44.1631 98.9627 45.2882C100.088 46.4134 101.912 46.4133 103.037 45.2882Z" fill="#0E78C8" fill-opacity="0.6"/>
<path d="M117.416 59.667C118.774 58.3096 118.774 56.1087 117.416 54.7512C116.059 53.3937 113.858 53.3937 112.5 54.7512C111.143 56.1087 111.143 58.3096 112.5 59.667C113.858 61.0245 116.059 61.0245 117.416 59.667Z" fill="#0E78C8" fill-opacity="0.6"/>
<path d="M131.803 74.0541C133.397 72.4598 133.397 69.8748 131.803 68.2805C130.209 66.6862 127.624 66.6862 126.03 68.2805C124.435 69.8748 124.435 72.4598 126.03 74.0541C127.624 75.6484 130.209 75.6484 131.803 74.0541Z" fill="#0E78C8" fill-opacity="0.6"/>
<path d="M146.19 88.4412C148.021 86.61 148.021 83.641 146.19 81.8098C144.359 79.9786 141.39 79.9786 139.559 81.8098C137.728 83.641 137.728 86.61 139.559 88.4412C141.39 90.2724 144.359 90.2724 146.19 88.4412Z" fill="#0E78C8" fill-opacity="0.6"/>
<path d="M159.72 101.97C161.314 100.376 161.314 97.7912 159.72 96.1969C158.125 94.6025 155.54 94.6025 153.946 96.1969C152.352 97.7912 152.352 100.376 153.946 101.97C155.54 103.565 158.125 103.565 159.72 101.97Z" fill="#0E78C8" fill-opacity="0.6"/>
<path d="M173.249 115.5C174.606 114.142 174.606 111.941 173.249 110.584C171.891 109.226 169.69 109.226 168.333 110.584C166.976 111.941 166.976 114.142 168.333 115.5C169.69 116.857 171.891 116.857 173.249 115.5Z" fill="#0E78C8" fill-opacity="0.6"/>
<path d="M186.786 129.037C187.911 127.912 187.911 126.088 186.786 124.963C185.661 123.838 183.837 123.838 182.712 124.963C181.587 126.088 181.587 127.912 182.712 129.037C183.837 130.162 185.661 130.162 186.786 129.037Z" fill="#0E78C8" fill-opacity="0.6"/>
<path d="M200.316 142.567C201.204 141.678 201.204 140.238 200.316 139.35C199.427 138.462 197.987 138.462 197.099 139.35C196.211 140.238 196.211 141.678 197.099 142.567C197.987 143.455 199.427 143.455 200.316 142.567Z" fill="#0E78C8" fill-opacity="0.6"/>
<path d="M213.845 156.096C214.496 155.444 214.496 154.388 213.845 153.737C213.193 153.085 212.137 153.085 211.486 153.737C210.835 154.388 210.835 155.444 211.486 156.096C212.137 156.747 213.193 156.747 213.845 156.096Z" fill="#0E78C8" fill-opacity="0.6"/>
<path d="M88.0151 2.34967C88.5526 1.81216 88.5526 0.940656 88.0151 0.403137C87.4776 -0.134383 86.6061 -0.134377 86.0686 0.403143C85.531 0.940663 85.531 1.81215 86.0686 2.34967C86.6061 2.88719 87.4776 2.88719 88.0151 2.34967Z" fill="#0E78C8" fill-opacity="0.6"/>
<path d="M102.287 16.6213C102.997 15.9107 102.997 14.7585 102.287 14.0479C101.576 13.3373 100.424 13.3373 99.7133 14.0479C99.0027 14.7585 99.0027 15.9107 99.7133 16.6213C100.424 17.3319 101.576 17.3319 102.287 16.6213Z" fill="#0E78C8" fill-opacity="0.6"/>
<path d="M116.567 30.9011C117.455 30.0129 117.455 28.5727 116.567 27.6844C115.678 26.7961 114.238 26.7961 113.35 27.6844C112.462 28.5727 112.462 30.0129 113.35 30.9011C114.238 31.7894 115.678 31.7894 116.567 30.9011Z" fill="#0E78C8" fill-opacity="0.6"/>
<path d="M130.846 45.181C131.912 44.115 131.912 42.3868 130.846 41.3209C129.78 40.255 128.052 40.255 126.986 41.3209C125.92 42.3868 125.92 44.115 126.986 45.181C128.052 46.2469 129.78 46.2469 130.846 45.181Z" fill="#0E78C8" fill-opacity="0.6"/>
<path d="M145.126 59.4608C146.37 58.2172 146.37 56.201 145.126 54.9574C143.883 53.7138 141.866 53.7138 140.623 54.9574C139.379 56.201 139.379 58.2172 140.623 59.4608C141.866 60.7044 143.883 60.7044 145.126 59.4608Z" fill="#0E78C8" fill-opacity="0.6"/>
<path d="M159.398 73.7324C160.815 72.3158 160.815 70.0189 159.398 68.6022C157.981 67.1855 155.684 67.1855 154.268 68.6022C152.851 70.0189 152.851 72.3158 154.268 73.7324C155.684 75.1491 157.981 75.1491 159.398 73.7324Z" fill="#0E78C8" fill-opacity="0.6"/>
<path d="M173.043 87.3772C174.286 86.1336 174.286 84.1174 173.043 82.8738C171.799 81.6302 169.783 81.6302 168.539 82.8738C167.296 84.1173 167.296 86.1336 168.539 87.3772C169.783 88.6208 171.799 88.6208 173.043 87.3772Z" fill="#0E78C8" fill-opacity="0.6"/>
<path d="M186.679 101.014C187.745 99.9478 187.745 98.2195 186.679 97.1536C185.613 96.0877 183.885 96.0877 182.819 97.1536C181.753 98.2195 181.753 99.9478 182.819 101.014C183.885 102.08 185.613 102.08 186.679 101.014Z" fill="#0E78C8" fill-opacity="0.6"/>
<path d="M200.316 114.65C201.204 113.762 201.204 112.322 200.316 111.433C199.427 110.545 197.987 110.545 197.099 111.433C196.211 112.322 196.211 113.762 197.099 114.65C197.987 115.538 199.427 115.538 200.316 114.65Z" fill="#0E78C8" fill-opacity="0.6"/>
<path d="M213.952 128.287C214.663 127.576 214.663 126.424 213.952 125.713C213.241 125.003 212.089 125.003 211.379 125.713C210.668 126.424 210.668 127.576 211.379 128.287C212.089 128.997 213.241 128.997 213.952 128.287Z" fill="#0E78C8" fill-opacity="0.6"/>
<path d="M227.597 141.931C228.134 141.394 228.134 140.522 227.597 139.985C227.059 139.447 226.188 139.447 225.65 139.985C225.113 140.522 225.113 141.394 225.65 141.931C226.188 142.469 227.059 142.469 227.597 141.931Z" fill="#0E78C8" fill-opacity="0.6"/>
<path d="M115.931 2.34967C116.469 1.81216 116.469 0.940669 115.931 0.403149C115.394 -0.134371 114.522 -0.134377 113.985 0.403143C113.447 0.940663 113.447 1.81216 113.985 2.34968C114.522 2.8872 115.394 2.88719 115.931 2.34967Z" fill="#0E78C8" fill-opacity="0.6"/>
<path d="M130.096 16.5141C130.747 15.8627 130.747 14.8065 130.096 14.1551C129.444 13.5037 128.388 13.5037 127.737 14.1551C127.085 14.8065 127.085 15.8627 127.737 16.5141C128.388 17.1655 129.444 17.1655 130.096 16.5141Z" fill="#0E78C8" fill-opacity="0.6"/>
<path d="M144.268 30.6867C145.038 29.9168 145.038 28.6687 144.268 27.8988C143.499 27.129 142.25 27.129 141.481 27.8988C140.711 28.6687 140.711 29.9168 141.481 30.6867C142.25 31.4565 143.499 31.4565 144.268 30.6867Z" fill="#0E78C8" fill-opacity="0.6"/>
<path d="M158.441 44.8593C159.329 43.971 159.329 42.5308 158.441 41.6426C157.553 40.7543 156.113 40.7543 155.224 41.6426C154.336 42.5308 154.336 43.971 155.224 44.8593C156.113 45.7476 157.553 45.7476 158.441 44.8593Z" fill="#0E78C8" fill-opacity="0.6"/>
<path d="M172.614 59.0319C173.62 58.0252 173.62 56.393 172.614 55.3863C171.607 54.3796 169.975 54.3796 168.968 55.3863C167.961 56.393 167.961 58.0252 168.968 59.0319C169.975 60.0386 171.607 60.0386 172.614 59.0319Z" fill="#0E78C8" fill-opacity="0.6"/>
<path d="M186.357 72.7757C187.246 71.8874 187.246 70.4472 186.357 69.5589C185.469 68.6707 184.029 68.6707 183.141 69.5589C182.252 70.4472 182.252 71.8874 183.141 72.7757C184.029 73.6639 185.469 73.6639 186.357 72.7757Z" fill="#0E78C8" fill-opacity="0.6"/>
<path d="M200.101 86.5194C200.871 85.7495 200.871 84.5014 200.101 83.7316C199.331 82.9617 198.083 82.9617 197.313 83.7316C196.543 84.5014 196.543 85.7495 197.313 86.5194C198.083 87.2892 199.331 87.2892 200.101 86.5194Z" fill="#0E78C8" fill-opacity="0.6"/>
<path d="M213.845 100.263C214.496 99.6117 214.496 98.5556 213.845 97.9042C213.193 97.2528 212.137 97.2528 211.486 97.9042C210.835 98.5556 210.835 99.6117 211.486 100.263C212.137 100.915 213.193 100.915 213.845 100.263Z" fill="#0E78C8" fill-opacity="0.6"/>
<path d="M227.597 114.015C228.134 113.478 228.134 112.606 227.597 112.069C227.059 111.531 226.188 111.531 225.65 112.069C225.113 112.606 225.113 113.478 225.65 114.015C226.188 114.553 227.059 114.553 227.597 114.015Z" fill="#0E78C8" fill-opacity="0.6"/>
<path d="M157.699 16.2006C158.177 15.7223 158.177 14.9469 157.699 14.4686C157.22 13.9903 156.445 13.9902 155.967 14.4685C155.488 14.9468 155.488 15.7223 155.967 16.2006C156.445 16.6789 157.22 16.6789 157.699 16.2006Z" fill="#0E78C8" fill-opacity="0.6"/>
<path d="M171.764 30.266C172.302 29.7285 172.302 28.857 171.764 28.3195C171.227 27.782 170.355 27.782 169.818 28.3195C169.28 28.857 169.28 29.7285 169.818 30.266C170.355 30.8035 171.227 30.8035 171.764 30.266Z" fill="#0E78C8" fill-opacity="0.6"/>
<path d="M185.821 44.3232C186.413 43.731 186.413 42.7709 185.821 42.1787C185.229 41.5865 184.269 41.5865 183.677 42.1787C183.085 42.7709 183.085 43.731 183.677 44.3232C184.269 44.9154 185.229 44.9154 185.821 44.3232Z" fill="#0E78C8" fill-opacity="0.6"/>
<path d="M199.681 58.1824C200.218 57.6449 200.218 56.7734 199.681 56.2359C199.143 55.6983 198.272 55.6983 197.734 56.2359C197.196 56.7734 197.196 57.6449 197.734 58.1824C198.271 58.7199 199.143 58.7199 199.681 58.1824Z" fill="#0E78C8" fill-opacity="0.6"/>
<path d="M213.531 72.0333C214.01 71.555 214.01 70.7796 213.531 70.3013C213.053 69.823 212.278 69.8229 211.799 70.3012C211.321 70.7795 211.321 71.555 211.799 72.0333C212.278 72.5116 213.053 72.5116 213.531 72.0333Z" fill="#0E78C8" fill-opacity="0.6"/>
</svg>
