<svg width="1092" height="401" viewBox="0 0 1092 401" fill="none" xmlns="http://www.w3.org/2000/svg">
<g filter="url(#filter0_d_276_35)">
<mask id="path-1-outside-1_276_35" maskUnits="userSpaceOnUse" x="12.576" y="-56.2645" width="1082.25" height="456.344" fill="black">
<rect fill="white" x="12.576" y="-56.2645" width="1082.25" height="456.344"/>
<path d="M35.2753 245.983L123.473 222.35L125.064 240.543L142.704 235.816L147.479 290.393L129.839 295.119L131.431 313.312L60.8728 332.217L65.6477 386.794L30.3687 396.247L19.2274 268.902L36.8669 264.175L35.2753 245.983ZM72.1458 254.722L73.7374 272.914L56.098 277.641L59.2812 314.025L94.5601 304.572L92.9685 286.38L110.608 281.654L107.425 245.269L72.1458 254.722ZM197.836 239.662L250.755 225.483L252.346 243.675L269.986 238.948L271.577 257.141L289.217 252.414L292.4 288.799L274.761 293.525L276.352 311.717L258.713 316.444L260.304 334.636L189.746 353.542L188.155 335.35L170.515 340.076L165.741 285.5L183.38 280.773L181.788 262.581L199.428 257.854L197.836 239.662ZM217.067 253.128L218.659 271.32L201.019 276.047L205.794 330.623L241.073 321.17L239.482 302.978L257.121 298.252L253.938 261.867L236.298 266.594L234.707 248.401L217.067 253.128ZM304.296 211.136L339.575 201.683L341.166 219.876L358.806 215.149L357.214 196.957L392.493 187.504L394.085 205.696L411.724 200.97L414.907 237.354L379.628 246.807L378.037 228.615L360.397 233.341L366.764 306.11L331.485 315.563L323.527 224.602L305.887 229.329L304.296 211.136ZM442.436 136.885L477.715 127.432L480.898 163.816L516.177 154.363L517.768 172.555L482.489 182.008L488.856 254.777L506.495 250.051L504.904 231.858L540.183 222.405L541.774 240.598L524.135 245.324L525.726 263.516L472.808 277.696L471.216 259.504L453.577 264.23L447.21 191.461L429.571 196.188L427.979 177.995L445.619 173.269L442.436 136.885ZM582.167 80.8248L635.086 66.6454L636.677 84.8376L654.317 80.1111L655.908 98.3034L620.629 107.756L619.038 89.5641L601.398 94.2906L604.582 130.675L657.5 116.496L659.092 134.688L606.173 148.867L612.54 221.636L630.179 216.91L631.771 235.102L596.492 244.555L594.9 226.363L577.261 231.089L570.894 158.32L553.255 163.047L551.663 144.854L569.303 140.128L566.119 103.744L583.759 99.0171L582.167 80.8248ZM710.626 102.261L763.544 88.0811L765.136 106.273L782.775 101.547L784.367 119.739L802.006 115.013L805.19 151.397L787.55 156.124L789.142 174.316L771.502 179.042L773.094 197.234L702.536 216.14L700.945 197.948L683.305 202.675L678.53 148.098L696.17 143.371L694.578 125.179L712.218 120.453L710.626 102.261ZM729.857 115.726L731.449 133.919L713.809 138.645L718.584 193.222L753.863 183.769L752.271 165.576L769.911 160.85L766.728 124.466L749.088 129.192L747.496 111L729.857 115.726ZM829.95 14.4317L865.229 4.97872L868.412 41.3632L850.773 46.0897L860.322 155.243L877.962 150.517L879.553 168.709L844.274 178.162L842.683 159.97L825.043 164.696L815.494 55.5426L833.133 50.8161L829.95 14.4317ZM902.099 13.718L937.378 4.26503L938.97 22.4573L903.691 31.9102L902.099 13.718ZM887.643 54.8289L922.922 45.376L930.88 136.337L948.52 131.611L950.111 149.803L914.832 159.256L913.241 141.064L895.601 145.79L887.643 54.8289ZM993.48 26.47L1046.4 12.2906L1047.99 30.4828L1065.63 25.7563L1067.22 43.9486L1084.86 39.2221L1088.04 75.6065L1070.4 80.333L1072 98.5253L1054.36 103.252L1055.95 121.444L985.39 140.35L983.799 122.158L966.159 126.884L961.384 72.3075L979.024 67.581L977.432 49.3887L995.072 44.6623L993.48 26.47ZM1012.71 39.9358L1014.3 58.128L996.663 62.8545L1001.44 117.431L1036.72 107.978L1035.13 89.786L1052.76 85.0595L1049.58 48.6751L1031.94 53.4015L1030.35 35.2093L1012.71 39.9358Z"/>
</mask>
<path d="M35.2753 245.983L123.473 222.35L125.064 240.543L142.704 235.816L147.479 290.393L129.839 295.119L131.431 313.312L60.8728 332.217L65.6477 386.794L30.3687 396.247L19.2274 268.902L36.8669 264.175L35.2753 245.983ZM72.1458 254.722L73.7374 272.914L56.098 277.641L59.2812 314.025L94.5601 304.572L92.9685 286.38L110.608 281.654L107.425 245.269L72.1458 254.722ZM197.836 239.662L250.755 225.483L252.346 243.675L269.986 238.948L271.577 257.141L289.217 252.414L292.4 288.799L274.761 293.525L276.352 311.717L258.713 316.444L260.304 334.636L189.746 353.542L188.155 335.35L170.515 340.076L165.741 285.5L183.38 280.773L181.788 262.581L199.428 257.854L197.836 239.662ZM217.067 253.128L218.659 271.32L201.019 276.047L205.794 330.623L241.073 321.17L239.482 302.978L257.121 298.252L253.938 261.867L236.298 266.594L234.707 248.401L217.067 253.128ZM304.296 211.136L339.575 201.683L341.166 219.876L358.806 215.149L357.214 196.957L392.493 187.504L394.085 205.696L411.724 200.97L414.907 237.354L379.628 246.807L378.037 228.615L360.397 233.341L366.764 306.11L331.485 315.563L323.527 224.602L305.887 229.329L304.296 211.136ZM442.436 136.885L477.715 127.432L480.898 163.816L516.177 154.363L517.768 172.555L482.489 182.008L488.856 254.777L506.495 250.051L504.904 231.858L540.183 222.405L541.774 240.598L524.135 245.324L525.726 263.516L472.808 277.696L471.216 259.504L453.577 264.23L447.21 191.461L429.571 196.188L427.979 177.995L445.619 173.269L442.436 136.885ZM582.167 80.8248L635.086 66.6454L636.677 84.8376L654.317 80.1111L655.908 98.3034L620.629 107.756L619.038 89.5641L601.398 94.2906L604.582 130.675L657.5 116.496L659.092 134.688L606.173 148.867L612.54 221.636L630.179 216.91L631.771 235.102L596.492 244.555L594.9 226.363L577.261 231.089L570.894 158.32L553.255 163.047L551.663 144.854L569.303 140.128L566.119 103.744L583.759 99.0171L582.167 80.8248ZM710.626 102.261L763.544 88.0811L765.136 106.273L782.775 101.547L784.367 119.739L802.006 115.013L805.19 151.397L787.55 156.124L789.142 174.316L771.502 179.042L773.094 197.234L702.536 216.14L700.945 197.948L683.305 202.675L678.53 148.098L696.17 143.371L694.578 125.179L712.218 120.453L710.626 102.261ZM729.857 115.726L731.449 133.919L713.809 138.645L718.584 193.222L753.863 183.769L752.271 165.576L769.911 160.85L766.728 124.466L749.088 129.192L747.496 111L729.857 115.726ZM829.95 14.4317L865.229 4.97872L868.412 41.3632L850.773 46.0897L860.322 155.243L877.962 150.517L879.553 168.709L844.274 178.162L842.683 159.97L825.043 164.696L815.494 55.5426L833.133 50.8161L829.95 14.4317ZM902.099 13.718L937.378 4.26503L938.97 22.4573L903.691 31.9102L902.099 13.718ZM887.643 54.8289L922.922 45.376L930.88 136.337L948.52 131.611L950.111 149.803L914.832 159.256L913.241 141.064L895.601 145.79L887.643 54.8289ZM993.48 26.47L1046.4 12.2906L1047.99 30.4828L1065.63 25.7563L1067.22 43.9486L1084.86 39.2221L1088.04 75.6065L1070.4 80.333L1072 98.5253L1054.36 103.252L1055.95 121.444L985.39 140.35L983.799 122.158L966.159 126.884L961.384 72.3075L979.024 67.581L977.432 49.3887L995.072 44.6623L993.48 26.47ZM1012.71 39.9358L1014.3 58.128L996.663 62.8545L1001.44 117.431L1036.72 107.978L1035.13 89.786L1052.76 85.0595L1049.58 48.6751L1031.94 53.4015L1030.35 35.2093L1012.71 39.9358Z" fill="#F1F27D"/>
<path d="M35.2753 245.983L35.0138 242.994L32.116 243.771L32.3775 246.759L35.2753 245.983ZM123.473 222.35L126.37 221.574L126.109 218.585L123.211 219.362L123.473 222.35ZM125.064 240.543L122.166 241.319L122.428 244.308L125.326 243.531L125.064 240.543ZM142.704 235.816L145.601 235.04L145.34 232.051L142.442 232.828L142.704 235.816ZM147.479 290.393L147.74 293.381L150.638 292.605L150.376 289.616L147.479 290.393ZM129.839 295.119L129.578 292.131L126.68 292.907L126.941 295.896L129.839 295.119ZM131.431 313.312L131.692 316.3L134.59 315.524L134.328 312.535L131.431 313.312ZM60.8728 332.217L60.6114 329.229L57.7136 330.005L57.975 332.994L60.8728 332.217ZM65.6477 386.794L65.9091 389.783L68.8069 389.006L68.5454 386.018L65.6477 386.794ZM30.3687 396.247L27.471 397.024L27.7324 400.012L30.6302 399.236L30.3687 396.247ZM19.2274 268.902L18.966 265.913L16.0682 266.689L16.3297 269.678L19.2274 268.902ZM36.8669 264.175L37.1284 267.164L40.0261 266.387L39.7647 263.399L36.8669 264.175ZM72.1458 254.722L71.8844 251.733L68.9866 252.51L69.2481 255.499L72.1458 254.722ZM73.7374 272.914L73.9989 275.903L76.8967 275.126L76.6352 272.138L73.7374 272.914ZM56.098 277.641L55.8365 274.652L52.9387 275.429L53.2002 278.417L56.098 277.641ZM59.2812 314.025L56.3834 314.802L56.6449 317.79L59.5427 317.014L59.2812 314.025ZM94.5601 304.572L94.8216 307.561L97.7194 306.784L97.4579 303.796L94.5601 304.572ZM92.9685 286.38L92.7071 283.391L89.8093 284.168L90.0707 287.157L92.9685 286.38ZM110.608 281.654L110.869 284.642L113.767 283.866L113.506 280.877L110.608 281.654ZM107.425 245.269L110.323 244.493L110.061 241.504L107.163 242.281L107.425 245.269ZM35.2753 245.983L35.5368 248.971L123.734 225.339L123.473 222.35L123.211 219.362L35.0138 242.994L35.2753 245.983ZM123.473 222.35L120.575 223.127L122.166 241.319L125.064 240.543L127.962 239.766L126.37 221.574L123.473 222.35ZM125.064 240.543L125.326 243.531L142.965 238.805L142.704 235.816L142.442 232.828L124.803 237.554L125.064 240.543ZM142.704 235.816L139.806 236.593L144.581 291.169L147.479 290.393L150.376 289.616L145.601 235.04L142.704 235.816ZM147.479 290.393L147.217 287.404L129.578 292.131L129.839 295.119L130.101 298.108L147.74 293.381L147.479 290.393ZM129.839 295.119L126.941 295.896L128.533 314.088L131.431 313.312L134.328 312.535L132.737 294.343L129.839 295.119ZM131.431 313.312L131.169 310.323L60.6114 329.229L60.8728 332.217L61.1343 335.206L131.692 316.3L131.431 313.312ZM60.8728 332.217L57.975 332.994L62.7499 387.571L65.6477 386.794L68.5454 386.018L63.7706 331.441L60.8728 332.217ZM65.6477 386.794L65.3862 383.806L30.1073 393.259L30.3687 396.247L30.6302 399.236L65.9091 389.783L65.6477 386.794ZM30.3687 396.247L33.2665 395.471L22.1252 268.125L19.2274 268.902L16.3297 269.678L27.471 397.024L30.3687 396.247ZM19.2274 268.902L19.4889 271.89L37.1284 267.164L36.8669 264.175L36.6054 261.186L18.966 265.913L19.2274 268.902ZM36.8669 264.175L39.7647 263.399L38.1731 245.206L35.2753 245.983L32.3775 246.759L33.9691 264.951L36.8669 264.175ZM72.1458 254.722L69.2481 255.499L70.8397 273.691L73.7374 272.914L76.6352 272.138L75.0436 253.946L72.1458 254.722ZM73.7374 272.914L73.476 269.926L55.8365 274.652L56.098 277.641L56.3594 280.629L73.9989 275.903L73.7374 272.914ZM56.098 277.641L53.2002 278.417L56.3834 314.802L59.2812 314.025L62.179 313.249L58.9958 276.864L56.098 277.641ZM59.2812 314.025L59.5427 317.014L94.8216 307.561L94.5601 304.572L94.2987 301.584L59.0197 311.037L59.2812 314.025ZM94.5601 304.572L97.4579 303.796L95.8663 285.604L92.9685 286.38L90.0707 287.157L91.6624 305.349L94.5601 304.572ZM92.9685 286.38L93.23 289.369L110.869 284.642L110.608 281.654L110.347 278.665L92.7071 283.391L92.9685 286.38ZM110.608 281.654L113.506 280.877L110.323 244.493L107.425 245.269L104.527 246.046L107.71 282.43L110.608 281.654ZM107.425 245.269L107.163 242.281L71.8844 251.733L72.1458 254.722L72.4073 257.711L107.686 248.258L107.425 245.269ZM197.836 239.662L197.575 236.674L194.677 237.45L194.938 240.439L197.836 239.662ZM250.755 225.483L253.652 224.706L253.391 221.718L250.493 222.494L250.755 225.483ZM252.346 243.675L249.449 244.451L249.71 247.44L252.608 246.663L252.346 243.675ZM269.986 238.948L272.884 238.172L272.622 235.183L269.724 235.96L269.986 238.948ZM271.577 257.141L268.68 257.917L268.941 260.906L271.839 260.129L271.577 257.141ZM289.217 252.414L292.115 251.638L291.853 248.649L288.955 249.426L289.217 252.414ZM292.4 288.799L292.662 291.787L295.559 291.011L295.298 288.022L292.4 288.799ZM274.761 293.525L274.499 290.537L271.601 291.313L271.863 294.302L274.761 293.525ZM276.352 311.717L276.614 314.706L279.511 313.929L279.25 310.941L276.352 311.717ZM258.713 316.444L258.451 313.455L255.553 314.232L255.815 317.22L258.713 316.444ZM260.304 334.636L260.566 337.625L263.464 336.848L263.202 333.86L260.304 334.636ZM189.746 353.542L186.849 354.318L187.11 357.307L190.008 356.531L189.746 353.542ZM188.155 335.35L191.053 334.573L190.791 331.585L187.893 332.361L188.155 335.35ZM170.515 340.076L167.618 340.853L167.879 343.841L170.777 343.065L170.515 340.076ZM165.741 285.5L165.479 282.511L162.581 283.287L162.843 286.276L165.741 285.5ZM183.38 280.773L183.641 283.762L186.539 282.985L186.278 279.997L183.38 280.773ZM181.788 262.581L181.527 259.592L178.629 260.369L178.891 263.357L181.788 262.581ZM199.428 257.854L199.689 260.843L202.587 260.066L202.326 257.078L199.428 257.854ZM217.067 253.128L216.806 250.139L213.908 250.916L214.17 253.904L217.067 253.128ZM218.659 271.32L218.92 274.309L221.818 273.532L221.557 270.544L218.659 271.32ZM201.019 276.047L200.758 273.058L197.86 273.834L198.122 276.823L201.019 276.047ZM205.794 330.623L202.897 331.4L203.158 334.388L206.056 333.612L205.794 330.623ZM241.073 321.17L241.335 324.159L244.233 323.382L243.971 320.394L241.073 321.17ZM239.482 302.978L239.22 299.989L236.322 300.766L236.584 303.755L239.482 302.978ZM257.121 298.252L257.383 301.24L260.28 300.464L260.019 297.475L257.121 298.252ZM253.938 261.867L256.836 261.091L256.574 258.102L253.676 258.879L253.938 261.867ZM236.298 266.594L233.401 267.37L233.662 270.359L236.56 269.582L236.298 266.594ZM234.707 248.401L237.605 247.625L237.343 244.636L234.445 245.413L234.707 248.401ZM197.836 239.662L198.098 242.651L251.016 228.471L250.755 225.483L250.493 222.494L197.575 236.674L197.836 239.662ZM250.755 225.483L247.857 226.259L249.449 244.451L252.346 243.675L255.244 242.898L253.652 224.706L250.755 225.483ZM252.346 243.675L252.608 246.663L270.247 241.937L269.986 238.948L269.724 235.96L252.085 240.686L252.346 243.675ZM269.986 238.948L267.088 239.725L268.68 257.917L271.577 257.141L274.475 256.364L272.884 238.172L269.986 238.948ZM271.577 257.141L271.839 260.129L289.478 255.403L289.217 252.414L288.955 249.426L271.316 254.152L271.577 257.141ZM289.217 252.414L286.319 253.191L289.502 289.575L292.4 288.799L295.298 288.022L292.115 251.638L289.217 252.414ZM292.4 288.799L292.139 285.81L274.499 290.537L274.761 293.525L275.022 296.514L292.662 291.787L292.4 288.799ZM274.761 293.525L271.863 294.302L273.454 312.494L276.352 311.717L279.25 310.941L277.658 292.749L274.761 293.525ZM276.352 311.717L276.091 308.729L258.451 313.455L258.713 316.444L258.974 319.432L276.614 314.706L276.352 311.717ZM258.713 316.444L255.815 317.22L257.407 335.413L260.304 334.636L263.202 333.86L261.611 315.667L258.713 316.444ZM260.304 334.636L260.043 331.647L189.485 350.553L189.746 353.542L190.008 356.531L260.566 337.625L260.304 334.636ZM189.746 353.542L192.644 352.766L191.053 334.573L188.155 335.35L185.257 336.126L186.849 354.318L189.746 353.542ZM188.155 335.35L187.893 332.361L170.254 337.088L170.515 340.076L170.777 343.065L188.416 338.338L188.155 335.35ZM170.515 340.076L173.413 339.3L168.638 284.723L165.741 285.5L162.843 286.276L167.618 340.853L170.515 340.076ZM165.741 285.5L166.002 288.488L183.641 283.762L183.38 280.773L183.119 277.784L165.479 282.511L165.741 285.5ZM183.38 280.773L186.278 279.997L184.686 261.804L181.788 262.581L178.891 263.357L180.482 281.55L183.38 280.773ZM181.788 262.581L182.05 265.569L199.689 260.843L199.428 257.854L199.166 254.866L181.527 259.592L181.788 262.581ZM199.428 257.854L202.326 257.078L200.734 238.886L197.836 239.662L194.938 240.439L196.53 258.631L199.428 257.854ZM217.067 253.128L214.17 253.904L215.761 272.097L218.659 271.32L221.557 270.544L219.965 252.351L217.067 253.128ZM218.659 271.32L218.397 268.332L200.758 273.058L201.019 276.047L201.281 279.035L218.92 274.309L218.659 271.32ZM201.019 276.047L198.122 276.823L202.897 331.4L205.794 330.623L208.692 329.847L203.917 275.27L201.019 276.047ZM205.794 330.623L206.056 333.612L241.335 324.159L241.073 321.17L240.812 318.182L205.533 327.635L205.794 330.623ZM241.073 321.17L243.971 320.394L242.379 302.202L239.482 302.978L236.584 303.755L238.175 321.947L241.073 321.17ZM239.482 302.978L239.743 305.967L257.383 301.24L257.121 298.252L256.86 295.263L239.22 299.989L239.482 302.978ZM257.121 298.252L260.019 297.475L256.836 261.091L253.938 261.867L251.04 262.644L254.223 299.028L257.121 298.252ZM253.938 261.867L253.676 258.879L236.037 263.605L236.298 266.594L236.56 269.582L254.199 264.856L253.938 261.867ZM236.298 266.594L239.196 265.817L237.605 247.625L234.707 248.401L231.809 249.178L233.401 267.37L236.298 266.594ZM234.707 248.401L234.445 245.413L216.806 250.139L217.067 253.128L217.329 256.116L234.968 251.39L234.707 248.401ZM304.296 211.136L304.034 208.148L301.136 208.924L301.398 211.913L304.296 211.136ZM339.575 201.683L342.472 200.907L342.211 197.918L339.313 198.695L339.575 201.683ZM341.166 219.876L338.268 220.652L338.53 223.641L341.428 222.864L341.166 219.876ZM358.806 215.149L359.067 218.138L361.965 217.361L361.703 214.373L358.806 215.149ZM357.214 196.957L356.953 193.968L354.055 194.745L354.316 197.733L357.214 196.957ZM392.493 187.504L395.391 186.728L395.129 183.739L392.231 184.515L392.493 187.504ZM394.085 205.696L391.187 206.473L391.448 209.461L394.346 208.685L394.085 205.696ZM411.724 200.97L414.622 200.193L414.36 197.205L411.463 197.981L411.724 200.97ZM414.907 237.354L415.169 240.343L418.067 239.566L417.805 236.578L414.907 237.354ZM379.628 246.807L376.731 247.584L376.992 250.572L379.89 249.796L379.628 246.807ZM378.037 228.615L380.935 227.838L380.673 224.85L377.775 225.626L378.037 228.615ZM360.397 233.341L360.136 230.353L357.238 231.129L357.499 234.118L360.397 233.341ZM366.764 306.11L367.025 309.099L369.923 308.322L369.661 305.334L366.764 306.11ZM331.485 315.563L328.587 316.34L328.848 319.328L331.746 318.552L331.485 315.563ZM323.527 224.602L326.424 223.826L326.163 220.837L323.265 221.614L323.527 224.602ZM305.887 229.329L302.989 230.105L303.251 233.094L306.149 232.317L305.887 229.329ZM304.296 211.136L304.557 214.125L339.836 204.672L339.575 201.683L339.313 198.695L304.034 208.148L304.296 211.136ZM339.575 201.683L336.677 202.46L338.268 220.652L341.166 219.876L344.064 219.099L342.472 200.907L339.575 201.683ZM341.166 219.876L341.428 222.864L359.067 218.138L358.806 215.149L358.544 212.161L340.905 216.887L341.166 219.876ZM358.806 215.149L361.703 214.373L360.112 196.181L357.214 196.957L354.316 197.733L355.908 215.926L358.806 215.149ZM357.214 196.957L357.475 199.946L392.754 190.493L392.493 187.504L392.231 184.515L356.953 193.968L357.214 196.957ZM392.493 187.504L389.595 188.28L391.187 206.473L394.085 205.696L396.982 204.92L395.391 186.728L392.493 187.504ZM394.085 205.696L394.346 208.685L411.986 203.958L411.724 200.97L411.463 197.981L393.823 202.708L394.085 205.696ZM411.724 200.97L408.826 201.746L412.009 238.131L414.907 237.354L417.805 236.578L414.622 200.193L411.724 200.97ZM414.907 237.354L414.646 234.366L379.367 243.819L379.628 246.807L379.89 249.796L415.169 240.343L414.907 237.354ZM379.628 246.807L382.526 246.031L380.935 227.838L378.037 228.615L375.139 229.391L376.731 247.584L379.628 246.807ZM378.037 228.615L377.775 225.626L360.136 230.353L360.397 233.341L360.659 236.33L378.298 231.604L378.037 228.615ZM360.397 233.341L357.499 234.118L363.866 306.887L366.764 306.11L369.661 305.334L363.295 232.565L360.397 233.341ZM366.764 306.11L366.502 303.122L331.223 312.575L331.485 315.563L331.746 318.552L367.025 309.099L366.764 306.11ZM331.485 315.563L334.383 314.787L326.424 223.826L323.527 224.602L320.629 225.379L328.587 316.34L331.485 315.563ZM323.527 224.602L323.265 221.614L305.626 226.34L305.887 229.329L306.149 232.317L323.788 227.591L323.527 224.602ZM305.887 229.329L308.785 228.552L307.193 210.36L304.296 211.136L301.398 211.913L302.989 230.105L305.887 229.329ZM442.436 136.885L442.174 133.896L439.276 134.672L439.538 137.661L442.436 136.885ZM477.715 127.432L480.612 126.655L480.351 123.667L477.453 124.443L477.715 127.432ZM480.898 163.816L478 164.592L478.262 167.581L481.159 166.805L480.898 163.816ZM516.177 154.363L519.075 153.587L518.813 150.598L515.915 151.374L516.177 154.363ZM517.768 172.555L518.03 175.544L520.928 174.767L520.666 171.779L517.768 172.555ZM482.489 182.008L482.228 179.02L479.33 179.796L479.592 182.785L482.489 182.008ZM488.856 254.777L485.958 255.554L486.22 258.542L489.117 257.766L488.856 254.777ZM506.495 250.051L506.757 253.039L509.655 252.263L509.393 249.274L506.495 250.051ZM504.904 231.858L504.642 228.87L501.744 229.646L502.006 232.635L504.904 231.858ZM540.183 222.405L543.08 221.629L542.819 218.64L539.921 219.417L540.183 222.405ZM541.774 240.598L542.036 243.586L544.934 242.81L544.672 239.821L541.774 240.598ZM524.135 245.324L523.873 242.336L520.976 243.112L521.237 246.101L524.135 245.324ZM525.726 263.516L525.988 266.505L528.886 265.729L528.624 262.74L525.726 263.516ZM472.808 277.696L469.91 278.472L470.172 281.461L473.069 280.684L472.808 277.696ZM471.216 259.504L474.114 258.727L473.853 255.739L470.955 256.515L471.216 259.504ZM453.577 264.23L450.679 265.007L450.941 267.995L453.838 267.219L453.577 264.23ZM447.21 191.461L450.108 190.685L449.847 187.696L446.949 188.473L447.21 191.461ZM429.571 196.188L426.673 196.964L426.935 199.953L429.832 199.176L429.571 196.188ZM427.979 177.995L427.718 175.007L424.82 175.783L425.082 178.772L427.979 177.995ZM445.619 173.269L445.88 176.258L448.778 175.481L448.517 172.493L445.619 173.269ZM442.436 136.885L442.697 139.873L477.976 130.42L477.715 127.432L477.453 124.443L442.174 133.896L442.436 136.885ZM477.715 127.432L474.817 128.208L478 164.592L480.898 163.816L483.796 163.04L480.612 126.655L477.715 127.432ZM480.898 163.816L481.159 166.805L516.438 157.352L516.177 154.363L515.915 151.374L480.636 160.827L480.898 163.816ZM516.177 154.363L513.279 155.14L514.871 173.332L517.768 172.555L520.666 171.779L519.075 153.587L516.177 154.363ZM517.768 172.555L517.507 169.567L482.228 179.02L482.489 182.008L482.751 184.997L518.03 175.544L517.768 172.555ZM482.489 182.008L479.592 182.785L485.958 255.554L488.856 254.777L491.754 254.001L485.387 181.232L482.489 182.008ZM488.856 254.777L489.117 257.766L506.757 253.039L506.495 250.051L506.234 247.062L488.594 251.789L488.856 254.777ZM506.495 250.051L509.393 249.274L507.802 231.082L504.904 231.858L502.006 232.635L503.598 250.827L506.495 250.051ZM504.904 231.858L505.165 234.847L540.444 225.394L540.183 222.405L539.921 219.417L504.642 228.87L504.904 231.858ZM540.183 222.405L537.285 223.182L538.876 241.374L541.774 240.598L544.672 239.821L543.08 221.629L540.183 222.405ZM541.774 240.598L541.513 237.609L523.873 242.336L524.135 245.324L524.396 248.313L542.036 243.586L541.774 240.598ZM524.135 245.324L521.237 246.101L522.829 264.293L525.726 263.516L528.624 262.74L527.033 244.548L524.135 245.324ZM525.726 263.516L525.465 260.528L472.547 274.707L472.808 277.696L473.069 280.684L525.988 266.505L525.726 263.516ZM472.808 277.696L475.706 276.919L474.114 258.727L471.216 259.504L468.319 260.28L469.91 278.472L472.808 277.696ZM471.216 259.504L470.955 256.515L453.315 261.242L453.577 264.23L453.838 267.219L471.478 262.492L471.216 259.504ZM453.577 264.23L456.475 263.454L450.108 190.685L447.21 191.461L444.313 192.238L450.679 265.007L453.577 264.23ZM447.21 191.461L446.949 188.473L429.31 193.199L429.571 196.188L429.832 199.176L447.472 194.45L447.21 191.461ZM429.571 196.188L432.469 195.411L430.877 177.219L427.979 177.995L425.082 178.772L426.673 196.964L429.571 196.188ZM427.979 177.995L428.241 180.984L445.88 176.258L445.619 173.269L445.357 170.28L427.718 175.007L427.979 177.995ZM445.619 173.269L448.517 172.493L445.333 136.108L442.436 136.885L439.538 137.661L442.721 174.045L445.619 173.269ZM582.167 80.8248L581.906 77.8363L579.008 78.6127L579.27 81.6013L582.167 80.8248ZM635.086 66.6454L637.983 65.8689L637.722 62.8804L634.824 63.6568L635.086 66.6454ZM636.677 84.8376L633.78 85.6141L634.041 88.6027L636.939 87.8262L636.677 84.8376ZM654.317 80.1111L657.215 79.3347L656.953 76.3461L654.055 77.1226L654.317 80.1111ZM655.908 98.3034L656.17 101.292L659.068 100.515L658.806 97.5269L655.908 98.3034ZM620.629 107.756L617.732 108.533L617.993 111.521L620.891 110.745L620.629 107.756ZM619.038 89.5641L621.936 88.7876L621.674 85.7991L618.776 86.5755L619.038 89.5641ZM601.398 94.2906L601.137 91.302L598.239 92.0785L598.501 95.067L601.398 94.2906ZM604.582 130.675L601.684 131.451L601.945 134.44L604.843 133.664L604.582 130.675ZM657.5 116.496L660.398 115.719L660.136 112.731L657.239 113.507L657.5 116.496ZM659.092 134.688L659.353 137.676L662.251 136.9L661.989 133.911L659.092 134.688ZM606.173 148.867L605.912 145.879L603.014 146.655L603.275 149.644L606.173 148.867ZM612.54 221.636L609.642 222.413L609.903 225.401L612.801 224.625L612.54 221.636ZM630.179 216.91L633.077 216.133L632.815 213.145L629.918 213.921L630.179 216.91ZM631.771 235.102L632.032 238.091L634.93 237.314L634.669 234.325L631.771 235.102ZM596.492 244.555L593.594 245.331L593.856 248.32L596.753 247.543L596.492 244.555ZM594.9 226.363L597.798 225.586L597.537 222.598L594.639 223.374L594.9 226.363ZM577.261 231.089L574.363 231.866L574.624 234.854L577.522 234.078L577.261 231.089ZM570.894 158.32L573.792 157.544L573.531 154.555L570.633 155.332L570.894 158.32ZM553.255 163.047L550.357 163.823L550.619 166.812L553.516 166.035L553.255 163.047ZM551.663 144.854L551.402 141.866L548.504 142.642L548.765 145.631L551.663 144.854ZM569.303 140.128L569.564 143.117L572.462 142.34L572.2 139.352L569.303 140.128ZM566.119 103.744L565.858 100.755L562.96 101.531L563.222 104.52L566.119 103.744ZM583.759 99.0171L584.02 102.006L586.918 101.229L586.657 98.2406L583.759 99.0171ZM582.167 80.8248L582.429 83.8134L635.347 69.634L635.086 66.6454L634.824 63.6568L581.906 77.8363L582.167 80.8248ZM635.086 66.6454L632.188 67.4218L633.78 85.6141L636.677 84.8376L639.575 84.0612L637.983 65.8689L635.086 66.6454ZM636.677 84.8376L636.939 87.8262L654.578 83.0997L654.317 80.1111L654.055 77.1226L636.416 81.849L636.677 84.8376ZM654.317 80.1111L651.419 80.8876L653.011 99.0798L655.908 98.3034L658.806 97.5269L657.215 79.3347L654.317 80.1111ZM655.908 98.3034L655.647 95.3148L620.368 104.768L620.629 107.756L620.891 110.745L656.17 101.292L655.908 98.3034ZM620.629 107.756L623.527 106.98L621.936 88.7876L619.038 89.5641L616.14 90.3406L617.732 108.533L620.629 107.756ZM619.038 89.5641L618.776 86.5755L601.137 91.302L601.398 94.2906L601.66 97.2792L619.299 92.5527L619.038 89.5641ZM601.398 94.2906L598.501 95.067L601.684 131.451L604.582 130.675L607.479 129.899L604.296 93.5141L601.398 94.2906ZM604.582 130.675L604.843 133.664L657.761 119.484L657.5 116.496L657.239 113.507L604.32 127.686L604.582 130.675ZM657.5 116.496L654.602 117.272L656.194 135.464L659.092 134.688L661.989 133.911L660.398 115.719L657.5 116.496ZM659.092 134.688L658.83 131.699L605.912 145.879L606.173 148.867L606.435 151.856L659.353 137.676L659.092 134.688ZM606.173 148.867L603.275 149.644L609.642 222.413L612.54 221.636L615.437 220.86L609.071 148.091L606.173 148.867ZM612.54 221.636L612.801 224.625L630.441 219.898L630.179 216.91L629.918 213.921L612.278 218.648L612.54 221.636ZM630.179 216.91L627.281 217.686L628.873 235.878L631.771 235.102L634.669 234.325L633.077 216.133L630.179 216.91ZM631.771 235.102L631.509 232.113L596.23 241.566L596.492 244.555L596.753 247.543L632.032 238.091L631.771 235.102ZM596.492 244.555L599.39 243.778L597.798 225.586L594.9 226.363L592.002 227.139L593.594 245.331L596.492 244.555ZM594.9 226.363L594.639 223.374L576.999 228.101L577.261 231.089L577.522 234.078L595.162 229.351L594.9 226.363ZM577.261 231.089L580.159 230.313L573.792 157.544L570.894 158.32L567.996 159.097L574.363 231.866L577.261 231.089ZM570.894 158.32L570.633 155.332L552.993 160.058L553.255 163.047L553.516 166.035L571.156 161.309L570.894 158.32ZM553.255 163.047L556.153 162.27L554.561 144.078L551.663 144.854L548.765 145.631L550.357 163.823L553.255 163.047ZM551.663 144.854L551.925 147.843L569.564 143.117L569.303 140.128L569.041 137.139L551.402 141.866L551.663 144.854ZM569.303 140.128L572.2 139.352L569.017 102.967L566.119 103.744L563.222 104.52L566.405 140.904L569.303 140.128ZM566.119 103.744L566.381 106.732L584.02 102.006L583.759 99.0171L583.497 96.0285L565.858 100.755L566.119 103.744ZM583.759 99.0171L586.657 98.2406L585.065 80.0484L582.167 80.8248L579.27 81.6013L580.861 99.7935L583.759 99.0171ZM710.626 102.261L710.364 99.272L707.467 100.048L707.728 103.037L710.626 102.261ZM763.544 88.0811L766.442 87.3046L766.181 84.3161L763.283 85.0925L763.544 88.0811ZM765.136 106.273L762.238 107.05L762.5 110.038L765.397 109.262L765.136 106.273ZM782.775 101.547L785.673 100.77L785.412 97.7818L782.514 98.5583L782.775 101.547ZM784.367 119.739L781.469 120.516L781.731 123.504L784.628 122.728L784.367 119.739ZM802.006 115.013L804.904 114.236L804.643 111.248L801.745 112.024L802.006 115.013ZM805.19 151.397L805.451 154.386L808.349 153.609L808.087 150.621L805.19 151.397ZM787.55 156.124L787.289 153.135L784.391 153.911L784.652 156.9L787.55 156.124ZM789.142 174.316L789.403 177.304L792.301 176.528L792.04 173.539L789.142 174.316ZM771.502 179.042L771.241 176.054L768.343 176.83L768.605 179.819L771.502 179.042ZM773.094 197.234L773.355 200.223L776.253 199.447L775.992 196.458L773.094 197.234ZM702.536 216.14L699.638 216.917L699.9 219.905L702.798 219.129L702.536 216.14ZM700.945 197.948L703.842 197.172L703.581 194.183L700.683 194.96L700.945 197.948ZM683.305 202.675L680.407 203.451L680.669 206.44L683.567 205.663L683.305 202.675ZM678.53 148.098L678.269 145.109L675.371 145.886L675.632 148.874L678.53 148.098ZM696.17 143.371L696.431 146.36L699.329 145.584L699.067 142.595L696.17 143.371ZM694.578 125.179L694.317 122.191L691.419 122.967L691.68 125.956L694.578 125.179ZM712.218 120.453L712.479 123.441L715.377 122.665L715.115 119.676L712.218 120.453ZM729.857 115.726L729.596 112.738L726.698 113.514L726.959 116.503L729.857 115.726ZM731.449 133.919L731.71 136.907L734.608 136.131L734.346 133.142L731.449 133.919ZM713.809 138.645L713.548 135.656L710.65 136.433L710.911 139.421L713.809 138.645ZM718.584 193.222L715.686 193.998L715.948 196.987L718.845 196.21L718.584 193.222ZM753.863 183.769L754.124 186.757L757.022 185.981L756.761 182.992L753.863 183.769ZM752.271 165.576L752.01 162.588L749.112 163.364L749.374 166.353L752.271 165.576ZM769.911 160.85L770.172 163.839L773.07 163.062L772.809 160.074L769.911 160.85ZM766.728 124.466L769.625 123.689L769.364 120.701L766.466 121.477L766.728 124.466ZM749.088 129.192L746.19 129.968L746.452 132.957L749.35 132.181L749.088 129.192ZM747.496 111L750.394 110.223L750.133 107.235L747.235 108.011L747.496 111ZM710.626 102.261L710.887 105.249L763.806 91.0697L763.544 88.0811L763.283 85.0925L710.364 99.272L710.626 102.261ZM763.544 88.0811L760.647 88.8576L762.238 107.05L765.136 106.273L768.034 105.497L766.442 87.3046L763.544 88.0811ZM765.136 106.273L765.397 109.262L783.037 104.535L782.775 101.547L782.514 98.5583L764.874 103.285L765.136 106.273ZM782.775 101.547L779.878 102.323L781.469 120.516L784.367 119.739L787.265 118.963L785.673 100.77L782.775 101.547ZM784.367 119.739L784.628 122.728L802.268 118.001L802.006 115.013L801.745 112.024L784.106 116.75L784.367 119.739ZM802.006 115.013L799.109 115.789L802.292 152.174L805.19 151.397L808.087 150.621L804.904 114.236L802.006 115.013ZM805.19 151.397L804.928 148.408L787.289 153.135L787.55 156.124L787.812 159.112L805.451 154.386L805.19 151.397ZM787.55 156.124L784.652 156.9L786.244 175.092L789.142 174.316L792.04 173.539L790.448 155.347L787.55 156.124ZM789.142 174.316L788.88 171.327L771.241 176.054L771.502 179.042L771.764 182.031L789.403 177.304L789.142 174.316ZM771.502 179.042L768.605 179.819L770.196 198.011L773.094 197.234L775.992 196.458L774.4 178.266L771.502 179.042ZM773.094 197.234L772.833 194.246L702.275 213.152L702.536 216.14L702.798 219.129L773.355 200.223L773.094 197.234ZM702.536 216.14L705.434 215.364L703.842 197.172L700.945 197.948L698.047 198.725L699.638 216.917L702.536 216.14ZM700.945 197.948L700.683 194.96L683.044 199.686L683.305 202.675L683.567 205.663L701.206 200.937L700.945 197.948ZM683.305 202.675L686.203 201.898L681.428 147.322L678.53 148.098L675.632 148.874L680.407 203.451L683.305 202.675ZM678.53 148.098L678.792 151.087L696.431 146.36L696.17 143.371L695.908 140.383L678.269 145.109L678.53 148.098ZM696.17 143.371L699.067 142.595L697.476 124.403L694.578 125.179L691.68 125.956L693.272 144.148L696.17 143.371ZM694.578 125.179L694.84 128.168L712.479 123.441L712.218 120.453L711.956 117.464L694.317 122.191L694.578 125.179ZM712.218 120.453L715.115 119.676L713.524 101.484L710.626 102.261L707.728 103.037L709.32 121.229L712.218 120.453ZM729.857 115.726L726.959 116.503L728.551 134.695L731.449 133.919L734.346 133.142L732.755 114.95L729.857 115.726ZM731.449 133.919L731.187 130.93L713.548 135.656L713.809 138.645L714.071 141.634L731.71 136.907L731.449 133.919ZM713.809 138.645L710.911 139.421L715.686 193.998L718.584 193.222L721.482 192.445L716.707 137.869L713.809 138.645ZM718.584 193.222L718.845 196.21L754.124 186.757L753.863 183.769L753.601 180.78L718.323 190.233L718.584 193.222ZM753.863 183.769L756.761 182.992L755.169 164.8L752.271 165.576L749.374 166.353L750.965 184.545L753.863 183.769ZM752.271 165.576L752.533 168.565L770.172 163.839L769.911 160.85L769.649 157.861L752.01 162.588L752.271 165.576ZM769.911 160.85L772.809 160.074L769.625 123.689L766.728 124.466L763.83 125.242L767.013 161.626L769.911 160.85ZM766.728 124.466L766.466 121.477L748.827 126.203L749.088 129.192L749.35 132.181L766.989 127.454L766.728 124.466ZM749.088 129.192L751.986 128.416L750.394 110.223L747.496 111L744.599 111.776L746.19 129.968L749.088 129.192ZM747.496 111L747.235 108.011L729.596 112.738L729.857 115.726L730.118 118.715L747.758 113.988L747.496 111ZM829.95 14.4317L829.688 11.4431L826.791 12.2196L827.052 15.2081L829.95 14.4317ZM865.229 4.97872L868.127 4.20227L867.865 1.21368L864.967 1.99014L865.229 4.97872ZM868.412 41.3632L868.674 44.3518L871.571 43.5753L871.31 40.5867L868.412 41.3632ZM850.773 46.0897L850.511 43.1011L847.613 43.8775L847.875 46.8661L850.773 46.0897ZM860.322 155.243L857.424 156.019L857.686 159.008L860.584 158.232L860.322 155.243ZM877.962 150.517L880.86 149.74L880.598 146.752L877.7 147.528L877.962 150.517ZM879.553 168.709L879.815 171.697L882.713 170.921L882.451 167.932L879.553 168.709ZM844.274 178.162L841.377 178.938L841.638 181.927L844.536 181.15L844.274 178.162ZM842.683 159.97L845.581 159.193L845.319 156.204L842.421 156.981L842.683 159.97ZM825.043 164.696L822.146 165.472L822.407 168.461L825.305 167.685L825.043 164.696ZM815.494 55.5426L815.232 52.554L812.334 53.3305L812.596 56.3191L815.494 55.5426ZM833.133 50.8161L833.395 53.8047L836.292 53.0283L836.031 50.0397L833.133 50.8161ZM829.95 14.4317L830.211 17.4203L865.49 7.96731L865.229 4.97872L864.967 1.99014L829.688 11.4431L829.95 14.4317ZM865.229 4.97872L862.331 5.75518L865.514 42.1396L868.412 41.3632L871.31 40.5867L868.127 4.20227L865.229 4.97872ZM868.412 41.3632L868.151 38.3746L850.511 43.1011L850.773 46.0897L851.034 49.0782L868.674 44.3518L868.412 41.3632ZM850.773 46.0897L847.875 46.8661L857.424 156.019L860.322 155.243L863.22 154.467L853.67 45.3132L850.773 46.0897ZM860.322 155.243L860.584 158.232L878.223 153.505L877.962 150.517L877.7 147.528L860.061 152.254L860.322 155.243ZM877.962 150.517L875.064 151.293L876.656 169.485L879.553 168.709L882.451 167.932L880.86 149.74L877.962 150.517ZM879.553 168.709L879.292 165.72L844.013 175.173L844.274 178.162L844.536 181.15L879.815 171.697L879.553 168.709ZM844.274 178.162L847.172 177.385L845.581 159.193L842.683 159.97L839.785 160.746L841.377 178.938L844.274 178.162ZM842.683 159.97L842.421 156.981L824.782 161.707L825.043 164.696L825.305 167.685L842.944 162.958L842.683 159.97ZM825.043 164.696L827.941 163.92L818.391 54.7662L815.494 55.5426L812.596 56.3191L822.146 165.472L825.043 164.696ZM815.494 55.5426L815.755 58.5312L833.395 53.8047L833.133 50.8161L832.872 47.8276L815.232 52.554L815.494 55.5426ZM833.133 50.8161L836.031 50.0397L832.848 13.6552L829.95 14.4317L827.052 15.2081L830.235 51.5926L833.133 50.8161ZM902.099 13.718L901.838 10.7294L898.94 11.5059L899.202 14.4944L902.099 13.718ZM937.378 4.26503L940.276 3.48857L940.015 0.499986L937.117 1.27644L937.378 4.26503ZM938.97 22.4573L939.231 25.4458L942.129 24.6694L941.868 21.6808L938.97 22.4573ZM903.691 31.9102L900.793 32.6867L901.055 35.6753L903.952 34.8988L903.691 31.9102ZM887.643 54.8289L887.382 51.8403L884.484 52.6168L884.745 55.6054L887.643 54.8289ZM922.922 45.376L925.82 44.5995L925.558 41.6109L922.661 42.3874L922.922 45.376ZM930.88 136.337L927.982 137.114L928.244 140.102L931.142 139.326L930.88 136.337ZM948.52 131.611L951.417 130.834L951.156 127.846L948.258 128.622L948.52 131.611ZM950.111 149.803L950.373 152.791L953.27 152.015L953.009 149.026L950.111 149.803ZM914.832 159.256L911.935 160.032L912.196 163.021L915.094 162.244L914.832 159.256ZM913.241 141.064L916.138 140.287L915.877 137.299L912.979 138.075L913.241 141.064ZM895.601 145.79L892.703 146.567L892.965 149.555L895.863 148.779L895.601 145.79ZM902.099 13.718L902.361 16.7066L937.64 7.25361L937.378 4.26503L937.117 1.27644L901.838 10.7294L902.099 13.718ZM937.378 4.26503L934.481 5.04148L936.072 23.2337L938.97 22.4573L941.868 21.6808L940.276 3.48857L937.378 4.26503ZM938.97 22.4573L938.708 19.4687L903.43 28.9216L903.691 31.9102L903.952 34.8988L939.231 25.4458L938.97 22.4573ZM903.691 31.9102L906.589 31.1338L904.997 12.9415L902.099 13.718L899.202 14.4944L900.793 32.6867L903.691 31.9102ZM887.643 54.8289L887.905 57.8175L923.184 48.3645L922.922 45.376L922.661 42.3874L887.382 51.8403L887.643 54.8289ZM922.922 45.376L920.024 46.1524L927.982 137.114L930.88 136.337L933.778 135.561L925.82 44.5995L922.922 45.376ZM930.88 136.337L931.142 139.326L948.781 134.599L948.52 131.611L948.258 128.622L930.619 133.349L930.88 136.337ZM948.52 131.611L945.622 132.387L947.213 150.579L950.111 149.803L953.009 149.026L951.417 130.834L948.52 131.611ZM950.111 149.803L949.85 146.814L914.571 156.267L914.832 159.256L915.094 162.244L950.373 152.791L950.111 149.803ZM914.832 159.256L917.73 158.479L916.138 140.287L913.241 141.064L910.343 141.84L911.935 160.032L914.832 159.256ZM913.241 141.064L912.979 138.075L895.34 142.801L895.601 145.79L895.863 148.779L913.502 144.052L913.241 141.064ZM895.601 145.79L898.499 145.014L890.541 54.0525L887.643 54.8289L884.745 55.6054L892.703 146.567L895.601 145.79ZM993.48 26.47L993.218 23.4815L990.321 24.2579L990.582 27.2465L993.48 26.47ZM1046.4 12.2906L1049.3 11.5141L1049.03 8.52556L1046.14 9.30202L1046.4 12.2906ZM1047.99 30.4828L1045.09 31.2593L1045.35 34.2479L1048.25 33.4714L1047.99 30.4828ZM1065.63 25.7563L1068.53 24.9799L1068.27 21.9913L1065.37 22.7678L1065.63 25.7563ZM1067.22 43.9486L1064.32 44.725L1064.58 47.7136L1067.48 46.9372L1067.22 43.9486ZM1084.86 39.2221L1087.76 38.4456L1087.5 35.4571L1084.6 36.2335L1084.86 39.2221ZM1088.04 75.6065L1088.31 78.5951L1091.2 77.8187L1090.94 74.8301L1088.04 75.6065ZM1070.4 80.333L1070.14 77.3444L1067.24 78.1209L1067.51 81.1095L1070.4 80.333ZM1072 98.5253L1072.26 101.514L1075.16 100.737L1074.89 97.7488L1072 98.5253ZM1054.36 103.252L1054.09 100.263L1051.2 101.04L1051.46 104.028L1054.36 103.252ZM1055.95 121.444L1056.21 124.433L1059.11 123.656L1058.85 120.668L1055.95 121.444ZM985.39 140.35L982.492 141.126L982.754 144.115L985.652 143.338L985.39 140.35ZM983.799 122.158L986.696 121.381L986.435 118.393L983.537 119.169L983.799 122.158ZM966.159 126.884L963.261 127.661L963.523 130.649L966.421 129.873L966.159 126.884ZM961.384 72.3075L961.123 69.3189L958.225 70.0953L958.486 73.0839L961.384 72.3075ZM979.024 67.581L979.285 70.5696L982.183 69.7931L981.921 66.8045L979.024 67.581ZM977.432 49.3887L977.171 46.4002L974.273 47.1766L974.534 50.1652L977.432 49.3887ZM995.072 44.6623L995.333 47.6509L998.231 46.8744L997.969 43.8858L995.072 44.6623ZM1012.71 39.9358L1012.45 36.9472L1009.55 37.7237L1009.81 40.7122L1012.71 39.9358ZM1014.3 58.128L1014.56 61.1166L1017.46 60.3401L1017.2 57.3516L1014.3 58.128ZM996.663 62.8545L996.402 59.8659L993.504 60.6424L993.765 63.631L996.663 62.8545ZM1001.44 117.431L998.54 118.208L998.802 121.196L1001.7 120.42L1001.44 117.431ZM1036.72 107.978L1036.98 110.967L1039.88 110.19L1039.61 107.202L1036.72 107.978ZM1035.13 89.786L1034.86 86.7974L1031.97 87.5739L1032.23 90.5624L1035.13 89.786ZM1052.76 85.0595L1053.03 88.0481L1055.92 87.2716L1055.66 84.2831L1052.76 85.0595ZM1049.58 48.6751L1052.48 47.8986L1052.22 44.91L1049.32 45.6865L1049.58 48.6751ZM1031.94 53.4015L1029.04 54.178L1029.31 57.1666L1032.2 56.3901L1031.94 53.4015ZM1030.35 35.2093L1033.25 34.4329L1032.99 31.4443L1030.09 32.2207L1030.35 35.2093ZM993.48 26.47L993.741 29.4586L1046.66 15.2792L1046.4 12.2906L1046.14 9.30202L993.218 23.4815L993.48 26.47ZM1046.4 12.2906L1043.5 13.0671L1045.09 31.2593L1047.99 30.4828L1050.89 29.7064L1049.3 11.5141L1046.4 12.2906ZM1047.99 30.4828L1048.25 33.4714L1065.89 28.7449L1065.63 25.7563L1065.37 22.7678L1047.73 27.4942L1047.99 30.4828ZM1065.63 25.7563L1062.73 26.5328L1064.32 44.725L1067.22 43.9486L1070.12 43.1721L1068.53 24.9799L1065.63 25.7563ZM1067.22 43.9486L1067.48 46.9372L1085.12 42.2107L1084.86 39.2221L1084.6 36.2335L1066.96 40.96L1067.22 43.9486ZM1084.86 39.2221L1081.96 39.9986L1085.15 76.383L1088.04 75.6065L1090.94 74.8301L1087.76 38.4456L1084.86 39.2221ZM1088.04 75.6065L1087.78 72.618L1070.14 77.3444L1070.4 80.333L1070.67 83.3216L1088.31 78.5951L1088.04 75.6065ZM1070.4 80.333L1067.51 81.1095L1069.1 99.3017L1072 98.5253L1074.89 97.7488L1073.3 79.5566L1070.4 80.333ZM1072 98.5253L1071.73 95.5367L1054.09 100.263L1054.36 103.252L1054.62 106.24L1072.26 101.514L1072 98.5253ZM1054.36 103.252L1051.46 104.028L1053.05 122.22L1055.95 121.444L1058.85 120.668L1057.25 102.475L1054.36 103.252ZM1055.95 121.444L1055.69 118.455L985.129 137.361L985.39 140.35L985.652 143.338L1056.21 124.433L1055.95 121.444ZM985.39 140.35L988.288 139.573L986.696 121.381L983.799 122.158L980.901 122.934L982.492 141.126L985.39 140.35ZM983.799 122.158L983.537 119.169L965.898 123.896L966.159 126.884L966.421 129.873L984.06 125.146L983.799 122.158ZM966.159 126.884L969.057 126.108L964.282 71.531L961.384 72.3075L958.486 73.0839L963.261 127.661L966.159 126.884ZM961.384 72.3075L961.646 75.296L979.285 70.5696L979.024 67.581L978.762 64.5924L961.123 69.3189L961.384 72.3075ZM979.024 67.581L981.921 66.8045L980.33 48.6123L977.432 49.3887L974.534 50.1652L976.126 68.3574L979.024 67.581ZM977.432 49.3887L977.694 52.3773L995.333 47.6509L995.072 44.6623L994.81 41.6737L977.171 46.4002L977.432 49.3887ZM995.072 44.6623L997.969 43.8858L996.378 25.6936L993.48 26.47L990.582 27.2465L992.174 45.4387L995.072 44.6623ZM1012.71 39.9358L1009.81 40.7122L1011.4 58.9045L1014.3 58.128L1017.2 57.3516L1015.61 39.1593L1012.71 39.9358ZM1014.3 58.128L1014.04 55.1394L996.402 59.8659L996.663 62.8545L996.925 65.8431L1014.56 61.1166L1014.3 58.128ZM996.663 62.8545L993.765 63.631L998.54 118.208L1001.44 117.431L1004.34 116.655L999.561 62.078L996.663 62.8545ZM1001.44 117.431L1001.7 120.42L1036.98 110.967L1036.72 107.978L1036.46 104.99L1001.18 114.443L1001.44 117.431ZM1036.72 107.978L1039.61 107.202L1038.02 89.0095L1035.13 89.786L1032.23 90.5624L1033.82 108.755L1036.72 107.978ZM1035.13 89.786L1035.39 92.7746L1053.03 88.0481L1052.76 85.0595L1052.5 82.0709L1034.86 86.7974L1035.13 89.786ZM1052.76 85.0595L1055.66 84.2831L1052.48 47.8986L1049.58 48.6751L1046.68 49.4515L1049.87 85.836L1052.76 85.0595ZM1049.58 48.6751L1049.32 45.6865L1031.68 50.413L1031.94 53.4015L1032.2 56.3901L1049.84 51.6636L1049.58 48.6751ZM1031.94 53.4015L1034.84 52.6251L1033.25 34.4329L1030.35 35.2093L1027.45 35.9858L1029.04 54.178L1031.94 53.4015ZM1030.35 35.2093L1030.09 32.2207L1012.45 36.9472L1012.71 39.9358L1012.97 42.9244L1030.61 38.1979L1030.35 35.2093Z" fill="black" mask="url(#path-1-outside-1_276_35)"/>
</g>
<defs>
<filter id="filter0_d_276_35" x="0.0681152" y="0.5" width="1091.13" height="399.512" filterUnits="userSpaceOnUse" color-interpolation-filters="sRGB">
<feFlood flood-opacity="0" result="BackgroundImageFix"/>
<feColorMatrix in="SourceAlpha" type="matrix" values="0 0 0 0 0 0 0 0 0 0 0 0 0 0 0 0 0 0 127 0" result="hardAlpha"/>
<feOffset dx="-16"/>
<feComposite in2="hardAlpha" operator="out"/>
<feColorMatrix type="matrix" values="0 0 0 0 0 0 0 0 0 0 0 0 0 0 0 0 0 0 0.25 0"/>
<feBlend mode="normal" in2="BackgroundImageFix" result="effect1_dropShadow_276_35"/>
<feBlend mode="normal" in="SourceGraphic" in2="effect1_dropShadow_276_35" result="shape"/>
</filter>
</defs>
</svg>
